<svg width="526" height="101" viewBox="0 0 526 101" fill="none" xmlns="http://www.w3.org/2000/svg">
<path fill-rule="evenodd" clip-rule="evenodd" d="M95.8863 99.9999L49.7985 72.1448V27.668L91.6351 53.0612L91.7357 2.23965L95.8863 1.63838e-06V99.9999ZM42.9987 23.5407L4.21429 6.39191e-05V100H8.3648V47.1026L42.9987 68.0351V23.5407Z" fill="white"/>
<path fill-rule="evenodd" clip-rule="evenodd" d="M91.7357 2.23965L95.8863 1.63838e-06C95.8863 1.63838e-06 107.532 -5.31027e-06 91.6351 9.41265e-06C75.7385 2.41356e-05 57.3538 6.63266 49.7985 27.0408C56.8503 25 91.7357 2.23965 91.7357 2.23965Z" fill="white"/>
<path fill-rule="evenodd" clip-rule="evenodd" d="M8.2644 97.7603L4.11388 100C4.11388 100 -7.53185 100 8.3648 100C24.2614 100 42.2433 93.1349 49.7985 72.7268C42.7468 74.7676 8.2644 97.7603 8.2644 97.7603Z" fill="white"/>
<path fill-rule="evenodd" clip-rule="evenodd" d="M91.7357 2.23965L95.8863 1.63838e-06C95.8863 1.63838e-06 107.532 -5.31027e-06 91.6351 9.41265e-06C75.7385 2.41356e-05 57.3538 6.63266 49.7985 27.0408C56.8503 25 91.7357 2.23965 91.7357 2.23965Z" fill="#A98B5D"/>
<path fill-rule="evenodd" clip-rule="evenodd" d="M8.2644 97.7603L4.11388 100C4.11388 100 -7.53185 100 8.3648 100C24.2614 100 42.2433 93.1349 49.7985 72.7268C42.7468 74.7676 8.2644 97.7603 8.2644 97.7603Z" fill="#A98B5D"/>
<path d="M199.168 14.344V16.264C197.12 16.52 195.584 17.064 194.56 17.896C193.536 18.664 192.832 19.912 192.448 21.64C192.128 23.368 191.968 25.8 191.968 28.936V82.504C191.2 82.44 190.4 82.408 189.568 82.408C188.8 82.408 187.968 82.44 187.072 82.504L145.408 29.704V66.568C145.408 70.088 145.6 72.808 145.984 74.728C146.368 76.584 147.2 77.928 148.48 78.76C149.824 79.528 151.904 80.072 154.72 80.392V82.312C153.504 82.184 151.904 82.12 149.92 82.12C147.936 82.056 146.08 82.024 144.352 82.024C142.88 82.024 141.376 82.056 139.84 82.12C138.304 82.12 137.024 82.184 136 82.312V80.392C138.048 80.072 139.584 79.528 140.608 78.76C141.632 77.992 142.304 76.744 142.624 75.016C143.008 73.224 143.2 70.792 143.2 67.72V24.52C143.2 22.152 143.008 20.424 142.624 19.336C142.304 18.184 141.6 17.416 140.512 17.032C139.488 16.584 137.984 16.328 136 16.264V14.344C137.024 14.408 138.304 14.472 139.84 14.536C141.376 14.6 142.88 14.632 144.352 14.632C145.888 14.632 147.36 14.6 148.768 14.536C150.176 14.472 151.456 14.408 152.608 14.344L189.76 60.136V30.088C189.76 26.568 189.568 23.88 189.184 22.024C188.8 20.104 187.936 18.728 186.592 17.896C185.312 17.064 183.264 16.52 180.448 16.264V14.344C181.664 14.408 183.264 14.472 185.248 14.536C187.232 14.6 189.088 14.632 190.816 14.632C192.352 14.632 193.856 14.6 195.328 14.536C196.864 14.472 198.144 14.408 199.168 14.344Z" fill="white"/>
<path d="M236.031 14.152L259.358 74.248C260.254 76.552 261.247 78.152 262.335 79.048C263.487 79.88 264.511 80.328 265.407 80.392V82.312C263.487 82.184 261.215 82.12 258.591 82.12C256.031 82.056 253.438 82.024 250.814 82.024C247.87 82.024 245.087 82.056 242.463 82.12C239.839 82.12 237.759 82.184 236.223 82.312V80.392C239.487 80.264 241.535 79.72 242.367 78.76C243.263 77.736 243.071 75.592 241.791 72.328L225.471 27.688L227.199 25.192L212.606 63.208C211.198 66.728 210.335 69.608 210.015 71.848C209.759 74.088 209.918 75.816 210.494 77.032C211.134 78.248 212.126 79.112 213.47 79.624C214.878 80.072 216.543 80.328 218.463 80.392V82.312C216.351 82.184 214.334 82.12 212.414 82.12C210.494 82.056 208.543 82.024 206.559 82.024C205.151 82.024 203.806 82.056 202.526 82.12C201.31 82.12 200.223 82.184 199.263 82.312V80.392C200.607 80.136 201.983 79.272 203.391 77.8C204.799 76.328 206.175 73.832 207.519 70.312L229.407 14.152C230.431 14.216 231.519 14.248 232.671 14.248C233.887 14.248 235.007 14.216 236.031 14.152ZM242.751 54.664V56.584H214.143L215.103 54.664H242.751Z" fill="white"/>
<path d="M266.123 14.344C267.723 14.408 269.867 14.472 272.555 14.536C275.307 14.6 278.027 14.632 280.715 14.632C283.787 14.632 286.763 14.6 289.643 14.536C292.523 14.472 294.571 14.44 295.787 14.44C301.739 14.44 306.667 15.112 310.571 16.456C314.539 17.736 317.483 19.624 319.403 22.12C321.387 24.616 322.379 27.624 322.379 31.144C322.379 33.32 321.931 35.528 321.035 37.768C320.139 39.944 318.603 41.992 316.427 43.912C314.315 45.768 311.403 47.272 307.691 48.424C303.979 49.512 299.307 50.056 293.675 50.056H284.459V48.136H292.715C296.491 48.136 299.339 47.432 301.259 46.024C303.243 44.552 304.587 42.632 305.291 40.264C306.059 37.832 306.443 35.144 306.443 32.2C306.443 27.144 305.547 23.24 303.755 20.488C301.963 17.672 298.891 16.264 294.539 16.264C292.043 16.264 290.411 16.808 289.643 17.896C288.939 18.984 288.587 21.192 288.587 24.52V72.136C288.587 74.44 288.747 76.168 289.067 77.32C289.451 78.472 290.155 79.24 291.179 79.624C292.203 80.008 293.739 80.264 295.787 80.392V82.312C294.059 82.184 291.883 82.12 289.259 82.12C286.635 82.056 283.979 82.024 281.291 82.024C278.219 82.024 275.307 82.056 272.555 82.12C269.867 82.12 267.723 82.184 266.123 82.312V80.392C268.171 80.264 269.707 80.008 270.731 79.624C271.755 79.24 272.427 78.472 272.747 77.32C273.131 76.168 273.323 74.44 273.323 72.136V24.52C273.323 22.152 273.131 20.424 272.747 19.336C272.427 18.184 271.723 17.416 270.635 17.032C269.611 16.584 268.107 16.328 266.123 16.264V14.344ZM284.267 48.424C287.019 48.488 289.387 48.616 291.371 48.808C293.419 49 295.211 49.192 296.747 49.384C298.283 49.512 299.659 49.608 300.875 49.672C306.699 50.184 310.987 51.432 313.739 53.416C316.555 55.4 318.379 58.376 319.211 62.344L321.419 72.232C321.995 74.792 322.603 76.584 323.243 77.608C323.883 78.632 324.811 79.144 326.027 79.144C326.859 79.08 327.531 78.888 328.043 78.568C328.619 78.184 329.227 77.64 329.867 76.936L331.211 78.088C329.483 80.072 327.627 81.48 325.643 82.312C323.659 83.208 321.259 83.656 318.443 83.656C314.987 83.656 312.139 82.92 309.899 81.448C307.659 79.976 306.187 77.256 305.483 73.288L303.755 63.688C303.307 61 302.763 58.664 302.123 56.68C301.483 54.632 300.587 53.032 299.435 51.88C298.347 50.664 296.811 50.056 294.827 50.056H284.459L284.267 48.424Z" fill="white"/>
<path d="M390.678 14.344C390.422 17.608 390.23 20.744 390.102 23.752C390.038 26.76 390.006 29.064 390.006 30.664C390.006 32.072 390.038 33.416 390.102 34.696C390.166 35.976 390.23 37.064 390.294 37.96H388.086C387.062 32.584 385.75 28.328 384.15 25.192C382.614 22.056 380.758 19.848 378.582 18.568C376.406 17.224 373.846 16.552 370.902 16.552H368.694V71.368C368.694 73.928 368.95 75.848 369.462 77.128C370.038 78.408 371.062 79.272 372.534 79.72C374.006 80.104 376.15 80.328 378.966 80.392V82.312C376.982 82.248 374.326 82.184 370.998 82.12C367.734 82.056 364.31 82.024 360.726 82.024C357.206 82.024 353.878 82.056 350.742 82.12C347.606 82.184 345.078 82.248 343.158 82.312V80.392C346.038 80.328 348.214 80.104 349.686 79.72C351.158 79.272 352.15 78.408 352.662 77.128C353.174 75.848 353.43 73.928 353.43 71.368V16.552H351.318C348.374 16.552 345.814 17.224 343.638 18.568C341.462 19.848 339.606 22.056 338.07 25.192C336.534 28.264 335.19 32.52 334.038 37.96H331.83C331.958 37.064 332.022 35.976 332.022 34.696C332.086 33.416 332.118 32.072 332.118 30.664C332.118 29.064 332.054 26.76 331.926 23.752C331.862 20.744 331.702 17.608 331.446 14.344C334.39 14.408 337.59 14.472 341.046 14.536C344.566 14.6 348.086 14.632 351.606 14.632C355.126 14.632 358.294 14.632 361.11 14.632C363.99 14.632 367.158 14.632 370.614 14.632C374.134 14.632 377.654 14.6 381.174 14.536C384.694 14.472 387.862 14.408 390.678 14.344Z" fill="white"/>
<path d="M422.968 14.152L446.296 74.248C447.192 76.552 448.184 78.152 449.272 79.048C450.424 79.88 451.448 80.328 452.344 80.392V82.312C450.424 82.184 448.152 82.12 445.528 82.12C442.968 82.056 440.376 82.024 437.752 82.024C434.808 82.024 432.024 82.056 429.4 82.12C426.776 82.12 424.696 82.184 423.16 82.312V80.392C426.424 80.264 428.472 79.72 429.304 78.76C430.2 77.736 430.008 75.592 428.728 72.328L412.408 27.688L414.136 25.192L399.544 63.208C398.136 66.728 397.272 69.608 396.952 71.848C396.696 74.088 396.856 75.816 397.432 77.032C398.072 78.248 399.064 79.112 400.408 79.624C401.816 80.072 403.48 80.328 405.4 80.392V82.312C403.288 82.184 401.272 82.12 399.352 82.12C397.432 82.056 395.48 82.024 393.496 82.024C392.088 82.024 390.744 82.056 389.464 82.12C388.248 82.12 387.16 82.184 386.2 82.312V80.392C387.544 80.136 388.92 79.272 390.328 77.8C391.736 76.328 393.112 73.832 394.456 70.312L416.344 14.152C417.368 14.216 418.456 14.248 419.608 14.248C420.824 14.248 421.944 14.216 422.968 14.152ZM429.688 54.664V56.584H401.08L402.04 54.664H429.688Z" fill="white"/>
<path d="M483.281 83.3365C478.718 82.7839 474.589 81.5144 470.894 79.528C465.838 76.776 461.902 72.808 459.086 67.624C456.27 62.44 454.862 56.2 454.862 48.904C454.862 41.736 456.302 35.464 459.182 30.088C462.126 24.712 466.126 20.52 471.182 17.512C476.302 14.504 482.19 13 488.846 13C495.63 13 501.55 14.376 506.606 17.128C511.726 19.88 515.694 23.848 518.51 29.032C521.326 34.152 522.734 40.392 522.734 47.752C522.734 54.92 521.294 61.192 518.414 66.568C515.534 71.944 511.502 76.136 506.318 79.144C501.839 81.7751 496.798 83.2555 491.193 83.5852C492.735 84.4798 493.926 85.4072 495.029 86.2657C498.241 88.7667 501.5 90.664 508.91 89.512C515.218 88.7998 521.31 86.2226 525.806 81.64C525.294 85.16 524.494 88.168 523.406 90.664C522.318 93.224 520.91 95.208 519.182 96.616C517.838 97.704 516.078 98.6 513.902 99.304C511.79 100.008 509.422 100.36 506.798 100.36C497.251 100.36 487.883 91.2972 483.281 83.3365ZM488.462 14.728C484.878 14.728 481.742 16.168 479.054 19.048C476.43 21.928 474.382 25.896 472.91 30.952C471.502 36.008 470.798 41.864 470.798 48.52C470.798 55.304 471.598 61.224 473.198 66.28C474.862 71.272 477.07 75.144 479.822 77.896C482.638 80.584 485.742 81.928 489.134 81.928C492.718 81.928 495.822 80.488 498.446 77.608C501.134 74.728 503.182 70.76 504.59 65.704C506.062 60.584 506.798 54.728 506.798 48.136C506.798 41.288 505.966 35.368 504.302 30.376C502.702 25.384 500.494 21.544 497.678 18.856C494.926 16.104 491.854 14.728 488.462 14.728Z" fill="white"/>
<path d="M483.281 83.3365C478.718 82.7839 474.589 81.5144 470.894 79.528C465.838 76.776 461.902 72.808 459.086 67.624C456.27 62.44 454.862 56.2 454.862 48.904C454.862 41.736 456.302 35.464 459.182 30.088C462.126 24.712 466.126 20.52 471.182 17.512C476.302 14.504 482.19 13 488.846 13C495.63 13 501.55 14.376 506.606 17.128C511.726 19.88 515.694 23.848 518.51 29.032C521.326 34.152 522.734 40.392 522.734 47.752C522.734 54.92 521.294 61.192 518.414 66.568C515.534 71.944 511.502 76.136 506.318 79.144C501.839 81.7751 496.798 83.2555 491.193 83.5852C492.735 84.4798 493.926 85.4072 495.029 86.2657C498.241 88.7667 501.5 90.664 508.91 89.512C515.218 88.7998 521.31 86.2226 525.806 81.64C525.294 85.16 524.494 88.168 523.406 90.664C522.318 93.224 520.91 95.208 519.182 96.616C517.838 97.704 516.078 98.6 513.902 99.304C511.79 100.008 509.422 100.36 506.798 100.36C497.251 100.36 487.883 91.2972 483.281 83.3365ZM488.462 14.728C484.878 14.728 481.742 16.168 479.054 19.048C476.43 21.928 474.382 25.896 472.91 30.952C471.502 36.008 470.798 41.864 470.798 48.52C470.798 55.304 471.598 61.224 473.198 66.28C474.862 71.272 477.07 75.144 479.822 77.896C482.638 80.584 485.742 81.928 489.134 81.928C492.718 81.928 495.822 80.488 498.446 77.608C501.134 74.728 503.182 70.76 504.59 65.704C506.062 60.584 506.798 54.728 506.798 48.136C506.798 41.288 505.966 35.368 504.302 30.376C502.702 25.384 500.494 21.544 497.678 18.856C494.926 16.104 491.854 14.728 488.462 14.728Z" fill="#A98B5D"/>
</svg>
