<svg width="223" height="223" viewBox="0 0 223 223" fill="none" xmlns="http://www.w3.org/2000/svg">
<path fill-rule="evenodd" clip-rule="evenodd" d="M213.826 223L111.051 160.883V61.6996L204.346 118.327L204.571 4.99441L213.826 3.65359e-06V223ZM95.8871 52.4959L9.39786 0.00014254V223H18.6535V105.039L95.8871 151.718V52.4959Z" fill="white"/>
<path fill-rule="evenodd" clip-rule="evenodd" d="M204.571 4.99441L213.826 3.65359e-06C213.826 3.65359e-06 239.796 -1.18419e-05 204.346 2.09902e-05C168.897 5.38223e-05 127.899 14.7908 111.051 60.301C126.776 55.7499 204.571 4.99441 204.571 4.99441Z" fill="white"/>
<path fill-rule="evenodd" clip-rule="evenodd" d="M18.4296 218.006L9.17396 223C9.17396 223 -16.796 223 18.6535 223C54.103 223 94.2025 207.691 111.051 162.181C95.3255 166.732 18.4296 218.006 18.4296 218.006Z" fill="white"/>
<path fill-rule="evenodd" clip-rule="evenodd" d="M204.571 4.99441L213.826 3.65359e-06C213.826 3.65359e-06 239.796 -1.18419e-05 204.346 2.09902e-05C168.897 5.38223e-05 127.899 14.7908 111.051 60.301C126.776 55.7499 204.571 4.99441 204.571 4.99441Z" fill="#A98B5D"/>
<path fill-rule="evenodd" clip-rule="evenodd" d="M18.4296 218.006L9.17396 223C9.17396 223 -16.796 223 18.6535 223C54.103 223 94.2025 207.691 111.051 162.181C95.3255 166.732 18.4296 218.006 18.4296 218.006Z" fill="#A98B5D"/>
</svg>
