<svg xmlns="http://www.w3.org/2000/svg" width="390" height="224" fill="none"><path fill="#fff" d="M63.168 137.344v1.92c-2.048.256-3.584.8-4.608 1.632-1.024.768-1.728 2.016-2.112 3.744-.32 1.728-.48 4.16-.48 7.296v53.568a28.917 28.917 0 0 0-2.4-.096c-.768 0-1.6.032-2.496.096l-41.664-52.8v36.864c0 3.52.192 6.24.576 8.16.384 1.856 1.216 3.2 2.496 4.032 1.344.768 3.424 1.312 6.24 1.632v1.92c-1.216-.128-2.816-.192-4.8-.192-1.984-.064-3.84-.096-5.568-.096-1.472 0-2.976.032-4.512.096-1.536 0-2.816.064-3.84.192v-1.92c2.048-.32 3.584-.864 4.608-1.632 1.024-.768 1.696-2.016 2.016-3.744.384-1.792.576-4.224.576-7.296v-43.2c0-2.368-.192-4.096-.576-5.184-.32-1.152-1.024-1.92-2.112-2.304-1.024-.448-2.528-.704-4.512-.768v-1.92c1.024.064 2.304.128 3.84.192s3.04.096 4.512.096c1.536 0 3.008-.032 4.416-.096 1.408-.064 2.688-.128 3.84-.192l37.152 45.792v-30.048c0-3.52-.192-6.208-.576-8.064-.384-1.92-1.248-3.296-2.592-4.128-1.28-.832-3.328-1.376-6.144-1.632v-1.92c1.216.064 2.816.128 4.8.192s3.84.096 5.568.096c1.536 0 3.04-.032 4.512-.096 1.536-.064 2.816-.128 3.84-.192Zm36.863-.192 23.327 60.096c.896 2.304 1.889 3.904 2.977 4.8 1.152.832 2.176 1.28 3.072 1.344v1.92c-1.92-.128-4.192-.192-6.816-.192a311.24 311.24 0 0 0-7.777-.096c-2.944 0-5.727.032-8.351.096-2.624 0-4.704.064-6.24.192v-1.92c3.264-.128 5.312-.672 6.144-1.632.896-1.024.704-3.168-.576-6.432l-16.32-44.64 1.727-2.496-14.591 38.016c-1.409 3.52-2.272 6.4-2.593 8.64-.255 2.24-.096 3.968.48 5.184.64 1.216 1.632 2.08 2.977 2.592 1.407.448 3.072.704 4.992.768v1.92a100.134 100.134 0 0 0-6.048-.192 175.86 175.86 0 0 0-5.857-.096 80.86 80.86 0 0 0-4.032.096c-1.215 0-2.303.064-3.263.192v-1.92c1.343-.256 2.72-1.12 4.128-2.592 1.407-1.472 2.783-3.968 4.127-7.488l21.888-56.16c1.024.064 2.112.096 3.264.096 1.216 0 2.337-.032 3.361-.096Zm6.72 40.512v1.92H78.142l.96-1.92h27.649Zm23.372-40.32c1.6.064 3.744.128 6.432.192a351 351 0 0 0 8.16.096c3.072 0 6.048-.032 8.928-.096 2.88-.064 4.928-.096 6.144-.096 5.952 0 10.88.672 14.784 2.016 3.968 1.28 6.912 3.168 8.832 5.664 1.984 2.496 2.976 5.504 2.976 9.024 0 2.176-.448 4.384-1.344 6.624-.896 2.176-2.432 4.224-4.608 6.144-2.112 1.856-5.024 3.36-8.736 4.512-3.712 1.088-8.384 1.632-14.016 1.632h-9.216v-1.92h8.256c3.776 0 6.624-.704 8.544-2.112 1.984-1.472 3.328-3.392 4.032-5.76.768-2.432 1.152-5.12 1.152-8.064 0-5.056-.896-8.96-2.688-11.712-1.792-2.816-4.864-4.224-9.216-4.224-2.496 0-4.128.544-4.896 1.632-.704 1.088-1.056 3.296-1.056 6.624v47.616c0 2.304.16 4.032.48 5.184.384 1.152 1.088 1.92 2.112 2.304 1.024.384 2.56.64 4.608.768v1.92c-1.728-.128-3.904-.192-6.528-.192-2.624-.064-5.28-.096-7.968-.096-3.072 0-5.984.032-8.736.096-2.688 0-4.832.064-6.432.192v-1.92c2.048-.128 3.584-.384 4.608-.768 1.024-.384 1.696-1.152 2.016-2.304.384-1.152.576-2.88.576-5.184V147.52c0-2.368-.192-4.096-.576-5.184-.32-1.152-1.024-1.92-2.112-2.304-1.024-.448-2.528-.704-4.512-.768v-1.92Zm18.144 34.08c2.752.064 5.12.192 7.104.384 2.048.192 3.84.384 5.376.576 1.536.128 2.912.224 4.128.288 5.824.512 10.112 1.76 12.864 3.744 2.816 1.984 4.64 4.96 5.472 8.928l2.208 9.888c.576 2.56 1.184 4.352 1.824 5.376.64 1.024 1.568 1.536 2.784 1.536.832-.064 1.504-.256 2.016-.576.576-.384 1.184-.928 1.824-1.632l1.344 1.152c-1.728 1.984-3.584 3.392-5.568 4.224-1.984.896-4.384 1.344-7.2 1.344-3.456 0-6.304-.736-8.544-2.208-2.24-1.472-3.712-4.192-4.416-8.16l-1.728-9.6c-.448-2.688-.992-5.024-1.632-7.008-.64-2.048-1.536-3.648-2.688-4.8-1.088-1.216-2.624-1.824-4.608-1.824h-10.368l-.192-1.632Zm106.411-34.08c-.256 3.264-.448 6.4-.576 9.408a350.057 350.057 0 0 0-.096 6.912c0 1.408.032 2.752.096 4.032.064 1.28.128 2.368.192 3.264h-2.208c-1.024-5.376-2.336-9.632-3.936-12.768-1.536-3.136-3.392-5.344-5.568-6.624-2.176-1.344-4.736-2.016-7.68-2.016h-2.208v54.816c0 2.56.256 4.48.768 5.76.576 1.28 1.6 2.144 3.072 2.592 1.472.384 3.616.608 6.432.672v1.92c-1.984-.064-4.64-.128-7.968-.192a524.814 524.814 0 0 0-10.272-.096c-3.52 0-6.848.032-9.984.096s-5.664.128-7.584.192v-1.92c2.88-.064 5.056-.288 6.528-.672 1.472-.448 2.464-1.312 2.976-2.592s.768-3.2.768-5.76v-54.816h-2.112c-2.944 0-5.504.672-7.68 2.016-2.176 1.28-4.032 3.488-5.568 6.624-1.536 3.072-2.88 7.328-4.032 12.768h-2.208c.128-.896.192-1.984.192-3.264a80.86 80.86 0 0 0 .096-4.032c0-1.6-.064-3.904-.192-6.912a165.484 165.484 0 0 0-.48-9.408c2.944.064 6.144.128 9.6.192 3.52.064 7.04.096 10.56.096h19.008c3.52 0 7.04-.032 10.56-.096 3.52-.064 6.688-.128 9.504-.192Zm32.29-.192 23.328 60.096c.896 2.304 1.888 3.904 2.976 4.8 1.152.832 2.176 1.28 3.072 1.344v1.92c-1.92-.128-4.192-.192-6.816-.192a311.16 311.16 0 0 0-7.776-.096c-2.944 0-5.728.032-8.352.096-2.624 0-4.704.064-6.24.192v-1.92c3.264-.128 5.312-.672 6.144-1.632.896-1.024.704-3.168-.576-6.432l-16.32-44.64 1.728-2.496-14.592 38.016c-1.408 3.52-2.272 6.4-2.592 8.64-.256 2.24-.096 3.968.48 5.184.64 1.216 1.632 2.08 2.976 2.592 1.408.448 3.072.704 4.992.768v1.92a100.134 100.134 0 0 0-6.048-.192c-1.92-.064-3.872-.096-5.856-.096a80.86 80.86 0 0 0-4.032.096c-1.216 0-2.304.064-3.264.192v-1.92c1.344-.256 2.72-1.12 4.128-2.592s2.784-3.968 4.128-7.488l21.888-56.16c1.024.064 2.112.096 3.264.096a54.14 54.14 0 0 0 3.36-.096Zm6.72 40.512v1.92H265.08l.96-1.92h27.648Zm53.593 28.673c-4.563-.553-8.692-1.823-12.387-3.809-5.056-2.752-8.992-6.72-11.808-11.904-2.816-5.184-4.224-11.424-4.224-18.72 0-7.168 1.44-13.44 4.32-18.816 2.944-5.376 6.944-9.568 12-12.576 5.12-3.008 11.008-4.512 17.664-4.512 6.784 0 12.704 1.376 17.76 4.128 5.12 2.752 9.088 6.72 11.904 11.904 2.816 5.12 4.224 11.36 4.224 18.72 0 7.168-1.44 13.44-4.32 18.816-2.88 5.376-6.912 9.568-12.096 12.576-4.479 2.631-9.52 4.111-15.125 4.441 1.542.895 2.733 1.822 3.836 2.681 3.212 2.501 6.471 4.398 13.881 3.246 6.308-.712 12.4-3.289 16.896-7.872-.512 3.52-1.312 6.528-2.4 9.024-1.088 2.56-2.496 4.544-4.224 5.952-1.344 1.088-3.104 1.984-5.28 2.688-2.112.704-4.48 1.056-7.104 1.056-9.547 0-18.915-9.063-23.517-17.023Zm5.181-68.609c-3.584 0-6.72 1.44-9.408 4.32-2.624 2.88-4.672 6.848-6.144 11.904-1.408 5.056-2.112 10.912-2.112 17.568 0 6.784.8 12.704 2.4 17.76 1.664 4.992 3.872 8.864 6.624 11.616 2.816 2.688 5.92 4.032 9.312 4.032 3.584 0 6.688-1.44 9.312-4.32 2.688-2.88 4.736-6.848 6.144-11.904 1.472-5.12 2.208-10.976 2.208-17.568 0-6.848-.832-12.768-2.496-17.76-1.6-4.992-3.808-8.832-6.624-11.52-2.752-2.752-5.824-4.128-9.216-4.128Z"/><path fill="#A98B5D" d="M347.281 206.337c-4.563-.553-8.692-1.823-12.387-3.809-5.056-2.752-8.992-6.72-11.808-11.904-2.816-5.184-4.224-11.424-4.224-18.72 0-7.168 1.44-13.44 4.32-18.816 2.944-5.376 6.944-9.568 12-12.576 5.12-3.008 11.008-4.512 17.664-4.512 6.784 0 12.704 1.376 17.76 4.128 5.12 2.752 9.088 6.72 11.904 11.904 2.816 5.12 4.224 11.36 4.224 18.72 0 7.168-1.44 13.44-4.32 18.816-2.88 5.376-6.912 9.568-12.096 12.576-4.479 2.631-9.52 4.111-15.125 4.441 1.542.895 2.733 1.822 3.836 2.681 3.212 2.501 6.471 4.398 13.881 3.246 6.308-.712 12.4-3.289 16.896-7.872-.512 3.52-1.312 6.528-2.4 9.024-1.088 2.56-2.496 4.544-4.224 5.952-1.344 1.088-3.104 1.984-5.28 2.688-2.112.704-4.48 1.056-7.104 1.056-9.547 0-18.915-9.063-23.517-17.023Zm5.181-68.609c-3.584 0-6.72 1.44-9.408 4.32-2.624 2.88-4.672 6.848-6.144 11.904-1.408 5.056-2.112 10.912-2.112 17.568 0 6.784.8 12.704 2.4 17.76 1.664 4.992 3.872 8.864 6.624 11.616 2.816 2.688 5.92 4.032 9.312 4.032 3.584 0 6.688-1.44 9.312-4.32 2.688-2.88 4.736-6.848 6.144-11.904 1.472-5.12 2.208-10.976 2.208-17.568 0-6.848-.832-12.768-2.496-17.76-1.6-4.992-3.808-8.832-6.624-11.52-2.752-2.752-5.824-4.128-9.216-4.128Z"/><path fill="#fff" fill-rule="evenodd" d="m234.886 100-46.087-27.855V27.668l41.836 25.393.101-50.821 4.15-2.24v100Zm-52.887-76.46L143.214 0v100h4.151V47.103l34.634 20.932V23.541Z" clip-rule="evenodd"/><path fill="#fff" fill-rule="evenodd" d="m230.736 2.24 4.15-2.24h-4.251c-15.897 0-34.281 6.633-41.836 27.04 7.051-2.04 41.937-24.8 41.937-24.8Zm-83.472 95.52-4.15 2.24h4.251c15.896 0 33.878-6.865 41.434-27.273-7.052 2.04-41.535 25.033-41.535 25.033Z" clip-rule="evenodd"/><path fill="#A98B5D" fill-rule="evenodd" d="m230.736 2.24 4.15-2.24h-4.251c-15.897 0-34.281 6.633-41.836 27.04 7.051-2.04 41.937-24.8 41.937-24.8Zm-83.472 95.52-4.15 2.24h4.251c15.896 0 33.878-6.865 41.434-27.273-7.052 2.04-41.535 25.033-41.535 25.033Z" clip-rule="evenodd"/></svg>