<svg xmlns="http://www.w3.org/2000/svg" fill="none" viewBox="0 0 526 101"><path fill="#fff" fill-rule="evenodd" d="M96 100 50 72V28l42 25V2l4-2v100zM43 24 4 0v100h4V47l35 21V24z" clip-rule="evenodd"/><path fill="#fff" fill-rule="evenodd" d="m92 2 4-2h-4C76 0 57 7 50 27c7-2 42-25 42-25zM8 98l-4 2h4c16 0 34-7 42-27-7 2-42 25-42 25z" clip-rule="evenodd"/><path fill="#A98B5D" fill-rule="evenodd" d="m92 2 4-2h-4C76 0 57 7 50 27c7-2 42-25 42-25zM8 98l-4 2h4c16 0 34-7 42-27-7 2-42 25-42 25z" clip-rule="evenodd"/><path fill="#fff" d="M199 14v2l-4 2-3 4v61a29 29 0 0 0-2-1l-3 1-42-53v37l1 8 2 4 7 1v2h-5a173 173 0 0 0-14 0v-2l5-1 2-4V19l-2-2-5-1v-2a191 191 0 0 0 17 0l37 46V30l-1-8-2-4-7-2v-2a247 247 0 0 0 19 0zm37 0 23 60 3 5 3 1v2h-6a311 311 0 0 0-8 0 343 343 0 0 0-15 0v-2l6-1v-7l-17-44 2-3-14 38-3 9v5l3 3h5v2a100 100 0 0 0-6 0h-5a81 81 0 0 0-4 0h-4v-2l4-2 5-8 21-56h4a54 54 0 0 0 3 0zm7 41v2h-29l1-2h28zm23-41 7 1a351 351 0 0 0 8 0 402 402 0 0 0 15-1l15 2 8 6 3 9-1 7c-1 2-2 4-5 6l-8 4c-4 2-9 2-14 2h-10v-2h9l8-2c2-1 4-3 4-6l1-8c0-5 0-9-2-12-2-2-5-4-9-4-3 0-5 1-5 2l-1 7v52l2 3h5v2h-7a327 327 0 0 0-23 0v-2h5l2-3V19l-2-2-5-1v-2zm18 34a99 99 0 0 1 17 2c6 0 10 1 13 3s4 5 5 9l2 10 2 6 3 1h2l2-2 1 1a15 15 0 0 1-13 6c-3 0-6-1-8-3-2-1-4-4-5-8l-1-9-2-7c-1-2-1-4-3-5l-4-2h-11v-2zm107-34-1 10a350 350 0 0 0 0 7 81 81 0 0 0 0 7h-2c-1-5-2-10-4-13-1-3-3-5-5-6-3-2-5-2-8-2h-2v60l4 3h6v2h-8a525 525 0 0 0-10 0h-18v-2h7l3-3V17h-2c-3 0-5 0-7 2-3 1-4 3-6 6l-4 13h-2v-3a81 81 0 0 0 0-4v-7a165 165 0 0 0-1-10 2997 2997 0 0 0 21 1h19a581 581 0 0 0 20-1zm32 0 23 60 3 5 3 1v2h-6a311 311 0 0 0-8 0 343 343 0 0 0-15 0v-2l6-1v-7l-17-44 2-3-14 38-3 9v5l3 3h5v2a100 100 0 0 0-6 0h-6a81 81 0 0 0-4 0h-3v-2l4-2 4-8 22-56h4a54 54 0 0 0 3 0zm7 41v2h-29l1-2h28zm53 28-12-3c-5-3-9-7-12-12-3-6-4-12-4-19s1-14 4-19a32 32 0 0 1 30-17c7 0 13 1 18 4s9 7 12 12c2 5 4 11 4 19 0 7-2 13-5 19-2 5-6 9-12 12-4 3-9 4-15 5l4 2c3 3 6 5 14 4 6-1 12-4 17-8l-3 9-4 6-5 2-7 1c-10 0-19-9-24-17zm5-68c-3 0-6 1-9 4s-5 7-6 12a66 66 0 0 0 0 35c2 5 4 9 7 12s6 4 9 4c4 0 7-2 9-4 3-3 5-7 7-12a64 64 0 0 0-1-36c-1-5-4-8-6-11-3-3-6-4-10-4z"/><path fill="#A98B5D" d="m483 83-12-3c-5-3-9-7-12-12-3-6-4-12-4-19s1-14 4-19a32 32 0 0 1 30-17c7 0 13 1 18 4s9 7 12 12c2 5 4 11 4 19 0 7-2 13-5 19-2 5-6 9-12 12-4 3-9 4-15 5l4 2c3 3 6 5 14 4 6-1 12-4 17-8l-3 9-4 6-5 2-7 1c-10 0-19-9-24-17zm5-68c-3 0-6 1-9 4s-5 7-6 12a66 66 0 0 0 0 35c2 5 4 9 7 12s6 4 9 4c4 0 7-2 9-4 3-3 5-7 7-12a64 64 0 0 0-1-36c-1-5-4-8-6-11-3-3-6-4-10-4z"/></svg>