<svg width="396" height="113" viewBox="0 0 396 113" fill="none" xmlns="http://www.w3.org/2000/svg">
<g filter="url(#filter0_d_40000013_227)">
<path d="M66.856 1.33465V3.24128C64.8181 3.4955 63.2897 4.03571 62.2708 4.86192C61.2518 5.62457 60.5513 6.86388 60.1692 8.57985C59.8508 10.2958 59.6916 12.7109 59.6916 15.825V69.0201C58.9273 68.9565 58.1313 68.9247 57.3034 68.9247C56.5392 68.9247 55.7113 68.9565 54.8197 69.0201L13.3615 16.5877V53.195C13.3615 56.6905 13.5526 59.3916 13.9347 61.2982C14.3168 63.1413 15.1447 64.4759 16.4184 65.3021C17.7557 66.0648 19.8254 66.605 22.6275 66.9228V68.8294C21.4175 68.7023 19.8254 68.6387 17.8512 68.6387C15.877 68.5752 14.0302 68.5434 12.3107 68.5434C10.846 68.5434 9.34945 68.5752 7.82103 68.6387C6.29262 68.6387 5.01894 68.7023 4 68.8294V66.9228C6.03788 66.605 7.5663 66.0648 8.58524 65.3021C9.60418 64.5395 10.2729 63.3002 10.5913 61.5842C10.9734 59.8047 11.1644 57.3896 11.1644 54.339V11.4398C11.1644 9.08828 10.9734 7.37231 10.5913 6.29189C10.2729 5.14791 9.57234 4.38526 8.48971 4.00393C7.47077 3.55905 5.9742 3.30483 4 3.24128V1.33465C5.01894 1.3982 6.29262 1.46175 7.82103 1.52531C9.34945 1.58886 10.846 1.62064 12.3107 1.62064C13.8392 1.62064 15.3039 1.58886 16.7049 1.52531C18.106 1.46175 19.3797 1.3982 20.526 1.33465L57.4945 46.8078V16.969C57.4945 13.4735 57.3034 10.8042 56.9213 8.96117C56.5392 7.05454 55.6795 5.68812 54.3421 4.86192C53.0684 4.03571 51.0306 3.4955 48.2285 3.24128V1.33465C49.4385 1.3982 51.0305 1.46175 53.0048 1.52531C54.979 1.58886 56.8258 1.62064 58.5452 1.62064C60.0737 1.62064 61.5702 1.58886 63.035 1.52531C64.5634 1.46175 65.8371 1.3982 66.856 1.33465Z" fill="white"/>
<path d="M103.536 1.14398L126.749 60.8216C127.641 63.1095 128.628 64.6984 129.71 65.5881C130.857 66.4143 131.876 66.8592 132.767 66.9228V68.8294C130.857 68.7023 128.596 68.6387 125.985 68.6387C123.438 68.5752 120.858 68.5434 118.247 68.5434C115.318 68.5434 112.548 68.5752 109.937 68.6387C107.326 68.6387 105.256 68.7023 103.727 68.8294V66.9228C106.975 66.7957 109.013 66.2555 109.841 65.3021C110.733 64.2853 110.542 62.1562 109.268 58.9149L93.0286 14.5857L94.748 12.1071L80.2281 49.8584C78.8271 53.3539 77.9673 56.2139 77.6489 58.4383C77.3942 60.6627 77.5534 62.3786 78.1265 63.5862C78.7634 64.7937 79.7505 65.6517 81.0878 66.1601C82.4889 66.605 84.1447 66.8592 86.0552 66.9228V68.8294C83.9536 68.7023 81.9476 68.6387 80.0371 68.6387C78.1265 68.5752 76.1842 68.5434 74.21 68.5434C72.8089 68.5434 71.4716 68.5752 70.1979 68.6387C68.9879 68.6387 67.9053 68.7023 66.95 68.8294V66.9228C68.2874 66.6686 69.6566 65.8106 71.0576 64.3488C72.4587 62.8871 73.8279 60.4084 75.1652 56.913L96.9451 1.14398C97.9641 1.20753 99.0467 1.23931 100.193 1.23931C101.403 1.23931 102.517 1.20753 103.536 1.14398ZM110.223 41.3739V43.2805H81.7565L82.7118 41.3739H110.223Z" fill="white"/>
<path d="M133.48 1.33465C135.072 1.3982 137.206 1.46175 139.88 1.52531C142.619 1.58886 145.325 1.62064 148 1.62064C151.057 1.62064 154.018 1.58886 156.884 1.52531C159.75 1.46175 161.788 1.42998 162.998 1.42998C168.92 1.42998 173.824 2.0973 177.708 3.43194C181.657 4.70303 184.586 6.57788 186.497 9.0565C188.471 11.5351 189.458 14.5222 189.458 18.0177C189.458 20.1785 189.012 22.3711 188.121 24.5956C187.229 26.7564 185.701 28.7901 183.536 30.6968C181.434 32.5399 178.536 34.0334 174.843 35.1774C171.149 36.2578 166.5 36.798 160.896 36.798H151.725V34.8914H159.941C163.698 34.8914 166.532 34.1923 168.442 32.7941C170.417 31.3323 171.754 29.4257 172.455 27.0742C173.219 24.6591 173.601 21.9898 173.601 19.0663C173.601 14.0455 172.709 10.1687 170.926 7.43586C169.143 4.63947 166.086 3.24128 161.756 3.24128C159.272 3.24128 157.648 3.78149 156.884 4.86192C156.183 5.94234 155.833 8.13496 155.833 11.4398V58.7243C155.833 61.0122 155.992 62.7282 156.311 63.8722C156.693 65.0161 157.393 65.7788 158.412 66.1601C159.431 66.5414 160.96 66.7957 162.998 66.9228V68.8294C161.278 68.7023 159.113 68.6387 156.502 68.6387C153.891 68.5752 151.248 68.5434 148.573 68.5434C145.516 68.5434 142.619 68.5752 139.88 68.6387C137.206 68.6387 135.072 68.7023 133.48 68.8294V66.9228C135.518 66.7957 137.046 66.5414 138.065 66.1601C139.084 65.7788 139.753 65.0161 140.071 63.8722C140.453 62.7282 140.644 61.0122 140.644 58.7243V11.4398C140.644 9.08828 140.453 7.37231 140.071 6.29189C139.753 5.14791 139.052 4.38526 137.97 4.00393C136.951 3.55905 135.454 3.30483 133.48 3.24128V1.33465ZM151.534 35.1774C154.273 35.2409 156.629 35.368 158.603 35.5587C160.641 35.7493 162.424 35.94 163.953 36.1307C165.481 36.2578 166.85 36.3531 168.06 36.4167C173.856 36.9251 178.122 38.1644 180.861 40.1346C183.663 42.1048 185.478 45.0601 186.306 49.0004L188.503 58.8196C189.076 61.3618 189.681 63.1413 190.318 64.1582C190.955 65.175 191.878 65.6835 193.088 65.6835C193.916 65.6199 194.585 65.4292 195.094 65.1115C195.667 64.7301 196.272 64.1899 196.909 63.4908L198.247 64.6348C196.527 66.605 194.68 68.0032 192.706 68.8294C190.732 69.7192 188.344 70.164 185.542 70.164C182.103 70.164 179.269 69.4332 177.04 67.9714C174.811 66.5097 173.346 63.8086 172.646 59.8682L170.926 50.3351C170.48 47.6658 169.939 45.3461 169.302 43.3759C168.665 41.3421 167.774 39.7533 166.627 38.6093C165.545 37.4018 164.016 36.798 162.042 36.798H151.725L151.534 35.1774Z" fill="white"/>
<path d="M257.42 1.33465C257.166 4.57592 256.975 7.69009 256.847 10.6771C256.783 13.6642 256.752 15.9522 256.752 17.541C256.752 18.9392 256.783 20.2739 256.847 21.5449C256.911 22.816 256.975 23.8965 257.038 24.7862H254.841C253.822 19.4476 252.517 15.2213 250.925 12.1071C249.396 8.99295 247.549 6.80032 245.384 5.52923C243.219 4.19459 240.671 3.52727 237.742 3.52727H235.545V57.9616C235.545 60.5038 235.8 62.4104 236.309 63.6815C236.882 64.9526 237.901 65.8106 239.366 66.2555C240.831 66.6368 242.964 66.8592 245.766 66.9228V68.8294C243.792 68.7658 241.149 68.7023 237.838 68.6387C234.59 68.5752 231.183 68.5434 227.616 68.5434C224.114 68.5434 220.802 68.5752 217.682 68.6387C214.561 68.7023 212.046 68.7658 210.135 68.8294V66.9228C213.001 66.8592 215.166 66.6368 216.631 66.2555C218.095 65.8106 219.083 64.9526 219.592 63.6815C220.102 62.4104 220.356 60.5038 220.356 57.9616V3.52727H218.255C215.325 3.52727 212.778 4.19459 210.613 5.52923C208.447 6.80032 206.601 8.99295 205.072 12.1071C203.544 15.1577 202.206 19.3841 201.06 24.7862H198.863C198.99 23.8965 199.054 22.816 199.054 21.5449C199.118 20.2739 199.15 18.9392 199.15 17.541C199.15 15.9522 199.086 13.6642 198.959 10.6771C198.895 7.69009 198.736 4.57592 198.481 1.33465C201.41 1.3982 204.595 1.46175 208.033 1.52531C211.536 1.58886 215.039 1.62064 218.541 1.62064C222.044 1.62064 225.196 1.62064 227.998 1.62064C230.864 1.62064 234.016 1.62064 237.455 1.62064C240.958 1.62064 244.461 1.58886 247.963 1.52531C251.466 1.46175 254.618 1.3982 257.42 1.33465Z" fill="white"/>
<path d="M289.551 1.14398L312.763 60.8216C313.655 63.1095 314.642 64.6984 315.725 65.5881C316.871 66.4143 317.89 66.8592 318.781 66.9228V68.8294C316.871 68.7023 314.61 68.6387 311.999 68.6387C309.452 68.5752 306.873 68.5434 304.262 68.5434C301.332 68.5434 298.562 68.5752 295.951 68.6387C293.34 68.6387 291.27 68.7023 289.742 68.8294V66.9228C292.99 66.7957 295.027 66.2555 295.855 65.3021C296.747 64.2853 296.556 62.1562 295.282 58.9149L279.043 14.5857L280.762 12.1071L266.242 49.8584C264.841 53.3539 263.981 56.2139 263.663 58.4383C263.408 60.6627 263.568 62.3786 264.141 63.5862C264.778 64.7937 265.765 65.6517 267.102 66.1601C268.503 66.605 270.159 66.8592 272.069 66.9228V68.8294C269.968 68.7023 267.962 68.6387 266.051 68.6387C264.141 68.5752 262.198 68.5434 260.224 68.5434C258.823 68.5434 257.486 68.5752 256.212 68.6387C255.002 68.6387 253.919 68.7023 252.964 68.8294V66.9228C254.302 66.6686 255.671 65.8106 257.072 64.3488C258.473 62.8871 259.842 60.4084 261.179 56.913L282.959 1.14398C283.978 1.20753 285.061 1.23931 286.207 1.23931C287.417 1.23931 288.532 1.20753 289.551 1.14398ZM296.237 41.3739V43.2805H267.771L268.726 41.3739H296.237Z" fill="white"/>
<path d="M349.566 69.8468C345.026 69.298 340.917 68.0374 337.24 66.0648C332.209 63.332 328.292 59.3916 325.49 54.2437C322.688 49.0958 321.287 42.8992 321.287 35.654C321.287 28.5359 322.72 22.3076 325.585 16.969C328.515 11.6305 332.495 7.46764 337.526 4.48059C342.621 1.49353 348.48 0 355.103 0C361.853 0 367.744 1.36642 372.775 4.09926C377.87 6.8321 381.818 10.7725 384.62 15.9204C387.422 21.0047 388.824 27.2013 388.824 34.51C388.824 41.6281 387.391 47.8565 384.525 53.195C381.659 58.5336 377.647 62.6964 372.489 65.6835C368.032 68.2962 363.016 69.7663 357.439 70.0937C358.973 70.9821 360.158 71.903 361.255 72.7556C364.452 75.2392 367.695 77.1233 375.068 75.9793C381.345 75.272 387.407 72.7128 391.88 68.1621C391.371 71.6576 390.575 74.6446 389.492 77.1233C388.41 79.6654 387.009 81.6356 385.289 83.0338C383.952 84.1142 382.2 85.004 380.035 85.7031C377.934 86.4022 375.577 86.7517 372.966 86.7517C363.467 86.7517 354.144 77.752 349.566 69.8468ZM354.721 1.71597C351.155 1.71597 348.034 3.14594 345.359 6.00589C342.748 8.86584 340.71 12.8062 339.246 17.827C337.845 22.8478 337.144 28.663 337.144 35.2727C337.144 42.0095 337.94 47.8882 339.532 52.909C341.188 57.8663 343.385 61.7113 346.123 64.4441C348.926 67.1134 352.014 68.4481 355.39 68.4481C358.956 68.4481 362.044 67.0181 364.655 64.1582C367.33 61.2982 369.368 57.3578 370.769 52.337C372.234 47.2527 372.966 41.4375 372.966 34.8914C372.966 28.091 372.138 22.2123 370.483 17.255C368.89 12.2978 366.693 8.48451 363.891 5.81523C361.153 3.08239 358.096 1.71597 354.721 1.71597Z" fill="white"/>
<path d="M349.566 69.8468C345.026 69.298 340.917 68.0374 337.24 66.0648C332.209 63.332 328.292 59.3916 325.49 54.2437C322.688 49.0958 321.287 42.8992 321.287 35.654C321.287 28.5359 322.72 22.3076 325.585 16.969C328.515 11.6305 332.495 7.46764 337.526 4.48059C342.621 1.49353 348.48 0 355.103 0C361.853 0 367.744 1.36642 372.775 4.09926C377.87 6.8321 381.818 10.7725 384.62 15.9204C387.422 21.0047 388.824 27.2013 388.824 34.51C388.824 41.6281 387.391 47.8565 384.525 53.195C381.659 58.5336 377.647 62.6964 372.489 65.6835C368.032 68.2962 363.016 69.7663 357.439 70.0937C358.973 70.9821 360.158 71.903 361.255 72.7556C364.452 75.2392 367.695 77.1233 375.068 75.9793C381.345 75.272 387.407 72.7128 391.88 68.1621C391.371 71.6576 390.575 74.6446 389.492 77.1233C388.41 79.6654 387.009 81.6356 385.289 83.0338C383.952 84.1142 382.2 85.004 380.035 85.7031C377.934 86.4022 375.577 86.7517 372.966 86.7517C363.467 86.7517 354.144 77.752 349.566 69.8468ZM354.721 1.71597C351.155 1.71597 348.034 3.14594 345.359 6.00589C342.748 8.86584 340.71 12.8062 339.246 17.827C337.845 22.8478 337.144 28.663 337.144 35.2727C337.144 42.0095 337.94 47.8882 339.532 52.909C341.188 57.8663 343.385 61.7113 346.123 64.4441C348.926 67.1134 352.014 68.4481 355.39 68.4481C358.956 68.4481 362.044 67.0181 364.655 64.1582C367.33 61.2982 369.368 57.3578 370.769 52.337C372.234 47.2527 372.966 41.4375 372.966 34.8914C372.966 28.091 372.138 22.2123 370.483 17.255C368.89 12.2978 366.693 8.48451 363.891 5.81523C361.153 3.08239 358.096 1.71597 354.721 1.71597Z" fill="#A98B5D"/>
</g>
<g filter="url(#filter1_d_40000013_227)">
<path d="M11.7501 103.756V83.8461H4V78.0895H26.6015V83.8461H18.8874V103.756H11.7501Z" fill="white"/>
<path d="M24.9653 103.756L36.1038 78.0895H43.1329L54.3075 103.756H46.8818L38.1584 81.6461H40.9701L32.2467 103.756H24.9653ZM31.0572 98.7691L32.8956 93.4159H45.2237L47.0621 98.7691H31.0572Z" fill="white"/>
<path d="M56.3309 103.756V78.0895H63.4682V97.9991H75.5079V103.756H56.3309Z" fill="white"/>
<path d="M84.7126 98.0725L84.316 89.9326L95.1662 78.0895H103.024L92.2103 90.0059L88.2452 94.2225L84.7126 98.0725ZM78.3322 103.756V78.0895H85.3974V103.756H78.3322ZM95.2743 103.756L87.0556 93.1592L91.7057 88.0993L103.565 103.756H95.2743Z" fill="white"/>
<path d="M113.777 104.269C111.711 104.269 109.716 104.012 107.794 103.499C105.895 102.961 104.345 102.277 103.144 101.446L105.487 96.0925C106.616 96.8258 107.914 97.4369 109.38 97.9258C110.87 98.3902 112.348 98.6225 113.813 98.6225C114.799 98.6225 115.592 98.5369 116.193 98.3658C116.793 98.1702 117.226 97.9258 117.49 97.6325C117.779 97.3147 117.923 96.948 117.923 96.5325C117.923 95.9458 117.658 95.4814 117.13 95.1392C116.601 94.797 115.916 94.5159 115.075 94.2959C114.234 94.0759 113.297 93.8559 112.263 93.6359C111.254 93.4159 110.233 93.1348 109.199 92.7926C108.19 92.4503 107.265 92.0104 106.424 91.4726C105.583 90.9104 104.898 90.1893 104.369 89.3093C103.84 88.4049 103.576 87.2682 103.576 85.8994C103.576 84.3594 103.985 82.9661 104.802 81.7194C105.643 80.4728 106.892 79.4706 108.551 78.7128C110.209 77.9551 112.275 77.5762 114.751 77.5762C116.409 77.5762 118.031 77.7717 119.617 78.1628C121.227 78.5295 122.657 79.0795 123.907 79.8128L121.708 85.2027C120.506 84.5427 119.317 84.0538 118.139 83.7361C116.962 83.3938 115.82 83.2227 114.715 83.2227C113.729 83.2227 112.936 83.3327 112.336 83.5527C111.735 83.7483 111.302 84.0172 111.038 84.3594C110.773 84.7016 110.641 85.0927 110.641 85.5327C110.641 86.0949 110.894 86.5471 111.398 86.8893C111.927 87.2071 112.612 87.476 113.453 87.696C114.318 87.8915 115.255 88.0993 116.265 88.3193C117.298 88.5393 118.319 88.8204 119.329 89.1626C120.362 89.4804 121.299 89.9204 122.14 90.4826C122.981 91.0204 123.654 91.7415 124.159 92.6459C124.688 93.5259 124.952 94.6381 124.952 95.9825C124.952 97.4736 124.531 98.8547 123.69 100.126C122.873 101.372 121.636 102.375 119.977 103.132C118.343 103.89 116.277 104.269 113.777 104.269Z" fill="white"/>
</g>
<defs>
<filter id="filter0_d_40000013_227" x="0" y="0" width="395.88" height="94.752" filterUnits="userSpaceOnUse" color-interpolation-filters="sRGB">
<feFlood flood-opacity="0" result="BackgroundImageFix"/>
<feColorMatrix in="SourceAlpha" type="matrix" values="0 0 0 0 0 0 0 0 0 0 0 0 0 0 0 0 0 0 127 0" result="hardAlpha"/>
<feOffset dy="4"/>
<feGaussianBlur stdDeviation="2"/>
<feComposite in2="hardAlpha" operator="out"/>
<feColorMatrix type="matrix" values="0 0 0 0 0 0 0 0 0 0 0 0 0 0 0 0 0 0 0.25 0"/>
<feBlend mode="normal" in2="BackgroundImageFix" result="effect1_dropShadow_40000013_227"/>
<feBlend mode="normal" in="SourceGraphic" in2="effect1_dropShadow_40000013_227" result="shape"/>
</filter>
<filter id="filter1_d_40000013_227" x="0" y="77.5762" width="128.952" height="34.6929" filterUnits="userSpaceOnUse" color-interpolation-filters="sRGB">
<feFlood flood-opacity="0" result="BackgroundImageFix"/>
<feColorMatrix in="SourceAlpha" type="matrix" values="0 0 0 0 0 0 0 0 0 0 0 0 0 0 0 0 0 0 127 0" result="hardAlpha"/>
<feOffset dy="4"/>
<feGaussianBlur stdDeviation="2"/>
<feComposite in2="hardAlpha" operator="out"/>
<feColorMatrix type="matrix" values="0 0 0 0 0 0 0 0 0 0 0 0 0 0 0 0 0 0 0.25 0"/>
<feBlend mode="normal" in2="BackgroundImageFix" result="effect1_dropShadow_40000013_227"/>
<feBlend mode="normal" in="SourceGraphic" in2="effect1_dropShadow_40000013_227" result="shape"/>
</filter>
</defs>
</svg>
