<svg width="532" height="532" viewBox="0 0 532 532" fill="none" xmlns="http://www.w3.org/2000/svg">
<rect width="532" height="532" fill="#232428"/>
<g filter="url(#filter0_d_40000013_181)">
<path d="M135.856 223.335V225.241C133.818 225.495 132.29 226.036 131.271 226.862C130.252 227.625 129.551 228.864 129.169 230.58C128.851 232.296 128.692 234.711 128.692 237.825V291.02C127.927 290.957 127.131 290.925 126.303 290.925C125.539 290.925 124.711 290.957 123.82 291.02L82.3615 238.588V275.195C82.3615 278.691 82.5526 281.392 82.9347 283.298C83.3168 285.141 84.1447 286.476 85.4184 287.302C86.7557 288.065 88.8254 288.605 91.6275 288.923V290.829C90.4175 290.702 88.8254 290.639 86.8512 290.639C84.877 290.575 83.0302 290.543 81.3107 290.543C79.846 290.543 78.3494 290.575 76.821 290.639C75.2926 290.639 74.0189 290.702 73 290.829V288.923C75.0379 288.605 76.5663 288.065 77.5852 287.302C78.6042 286.539 79.2729 285.3 79.5913 283.584C79.9734 281.805 80.1644 279.39 80.1644 276.339V233.44C80.1644 231.088 79.9734 229.372 79.5913 228.292C79.2729 227.148 78.5723 226.385 77.4897 226.004C76.4708 225.559 74.9742 225.305 73 225.241V223.335C74.0189 223.398 75.2926 223.462 76.821 223.525C78.3494 223.589 79.846 223.621 81.3107 223.621C82.8392 223.621 84.3039 223.589 85.7049 223.525C87.106 223.462 88.3797 223.398 89.526 223.335L126.494 268.808V238.969C126.494 235.474 126.303 232.804 125.921 230.961C125.539 229.055 124.679 227.688 123.342 226.862C122.068 226.036 120.031 225.495 117.228 225.241V223.335C118.438 223.398 120.031 223.462 122.005 223.525C123.979 223.589 125.826 223.621 127.545 223.621C129.074 223.621 130.57 223.589 132.035 223.525C133.563 223.462 134.837 223.398 135.856 223.335Z" fill="#DCD7CE"/>
<path d="M172.536 223.144L195.749 282.822C196.641 285.11 197.628 286.698 198.71 287.588C199.857 288.414 200.876 288.859 201.767 288.923V290.829C199.857 290.702 197.596 290.639 194.985 290.639C192.438 290.575 189.858 290.543 187.247 290.543C184.318 290.543 181.548 290.575 178.937 290.639C176.326 290.639 174.256 290.702 172.727 290.829V288.923C175.975 288.796 178.013 288.255 178.841 287.302C179.733 286.285 179.542 284.156 178.268 280.915L162.029 236.586L163.748 234.107L149.228 271.858C147.827 275.354 146.967 278.214 146.649 280.438C146.394 282.663 146.553 284.379 147.127 285.586C147.763 286.794 148.75 287.652 150.088 288.16C151.489 288.605 153.145 288.859 155.055 288.923V290.829C152.954 290.702 150.948 290.639 149.037 290.639C147.127 290.575 145.184 290.543 143.21 290.543C141.809 290.543 140.472 290.575 139.198 290.639C137.988 290.639 136.905 290.702 135.95 290.829V288.923C137.287 288.669 138.657 287.811 140.058 286.349C141.459 284.887 142.828 282.408 144.165 278.913L165.945 223.144C166.964 223.208 168.047 223.239 169.193 223.239C170.403 223.239 171.517 223.208 172.536 223.144ZM179.223 263.374V265.281H150.757L151.712 263.374H179.223Z" fill="#DCD7CE"/>
<path d="M202.48 223.335C204.072 223.398 206.206 223.462 208.88 223.525C211.619 223.589 214.325 223.621 217 223.621C220.057 223.621 223.018 223.589 225.884 223.525C228.75 223.462 230.788 223.43 231.998 223.43C237.92 223.43 242.824 224.097 246.708 225.432C250.657 226.703 253.586 228.578 255.497 231.057C257.471 233.535 258.458 236.522 258.458 240.018C258.458 242.179 258.012 244.371 257.121 246.596C256.229 248.756 254.701 250.79 252.536 252.697C250.434 254.54 247.536 256.033 243.843 257.177C240.149 258.258 235.5 258.798 229.896 258.798H220.725V256.891H228.941C232.698 256.891 235.532 256.192 237.442 254.794C239.417 253.332 240.754 251.426 241.455 249.074C242.219 246.659 242.601 243.99 242.601 241.066C242.601 236.046 241.709 232.169 239.926 229.436C238.143 226.639 235.086 225.241 230.756 225.241C228.272 225.241 226.648 225.781 225.884 226.862C225.183 227.942 224.833 230.135 224.833 233.44V280.724C224.833 283.012 224.992 284.728 225.311 285.872C225.693 287.016 226.393 287.779 227.412 288.16C228.431 288.541 229.96 288.796 231.998 288.923V290.829C230.278 290.702 228.113 290.639 225.502 290.639C222.891 290.575 220.248 290.543 217.573 290.543C214.516 290.543 211.619 290.575 208.88 290.639C206.206 290.639 204.072 290.702 202.48 290.829V288.923C204.518 288.796 206.046 288.541 207.065 288.16C208.084 287.779 208.753 287.016 209.071 285.872C209.453 284.728 209.644 283.012 209.644 280.724V233.44C209.644 231.088 209.453 229.372 209.071 228.292C208.753 227.148 208.052 226.385 206.97 226.004C205.951 225.559 204.454 225.305 202.48 225.241V223.335ZM220.534 257.177C223.273 257.241 225.629 257.368 227.603 257.559C229.641 257.749 231.424 257.94 232.953 258.131C234.481 258.258 235.85 258.353 237.06 258.417C242.856 258.925 247.122 260.164 249.861 262.135C252.663 264.105 254.478 267.06 255.306 271L257.503 280.82C258.076 283.362 258.681 285.141 259.318 286.158C259.955 287.175 260.878 287.683 262.088 287.683C262.916 287.62 263.585 287.429 264.094 287.111C264.667 286.73 265.272 286.19 265.909 285.491L267.247 286.635C265.527 288.605 263.68 290.003 261.706 290.829C259.732 291.719 257.344 292.164 254.542 292.164C251.103 292.164 248.269 291.433 246.04 289.971C243.811 288.51 242.346 285.809 241.646 281.868L239.926 272.335C239.48 269.666 238.939 267.346 238.302 265.376C237.665 263.342 236.774 261.753 235.627 260.609C234.545 259.402 233.016 258.798 231.042 258.798H220.725L220.534 257.177Z" fill="#DCD7CE"/>
<path d="M326.42 223.335C326.166 226.576 325.975 229.69 325.847 232.677C325.783 235.664 325.752 237.952 325.752 239.541C325.752 240.939 325.783 242.274 325.847 243.545C325.911 244.816 325.975 245.896 326.038 246.786H323.841C322.822 241.448 321.517 237.221 319.925 234.107C318.396 230.993 316.549 228.8 314.384 227.529C312.219 226.195 309.671 225.527 306.742 225.527H304.545V279.962C304.545 282.504 304.8 284.41 305.309 285.682C305.882 286.953 306.901 287.811 308.366 288.255C309.831 288.637 311.964 288.859 314.766 288.923V290.829C312.792 290.766 310.149 290.702 306.838 290.639C303.59 290.575 300.183 290.543 296.616 290.543C293.114 290.543 289.802 290.575 286.682 290.639C283.561 290.702 281.046 290.766 279.135 290.829V288.923C282.001 288.859 284.166 288.637 285.631 288.255C287.095 287.811 288.083 286.953 288.592 285.682C289.102 284.41 289.356 282.504 289.356 279.962V225.527H287.255C284.325 225.527 281.778 226.195 279.613 227.529C277.447 228.8 275.601 230.993 274.072 234.107C272.544 237.158 271.206 241.384 270.06 246.786H267.863C267.99 245.896 268.054 244.816 268.054 243.545C268.118 242.274 268.15 240.939 268.15 239.541C268.15 237.952 268.086 235.664 267.959 232.677C267.895 229.69 267.736 226.576 267.481 223.335C270.41 223.398 273.595 223.462 277.033 223.525C280.536 223.589 284.039 223.621 287.541 223.621C291.044 223.621 294.196 223.621 296.998 223.621C299.864 223.621 303.016 223.621 306.455 223.621C309.958 223.621 313.461 223.589 316.963 223.525C320.466 223.462 323.618 223.398 326.42 223.335Z" fill="#DCD7CE"/>
<path d="M358.551 223.144L381.763 282.822C382.655 285.11 383.642 286.698 384.725 287.588C385.871 288.414 386.89 288.859 387.781 288.923V290.829C385.871 290.702 383.61 290.639 380.999 290.639C378.452 290.575 375.873 290.543 373.262 290.543C370.332 290.543 367.562 290.575 364.951 290.639C362.34 290.639 360.27 290.702 358.742 290.829V288.923C361.99 288.796 364.027 288.255 364.855 287.302C365.747 286.285 365.556 284.156 364.282 280.915L348.043 236.586L349.762 234.107L335.242 271.858C333.841 275.354 332.981 278.214 332.663 280.438C332.408 282.663 332.568 284.379 333.141 285.586C333.778 286.794 334.765 287.652 336.102 288.16C337.503 288.605 339.159 288.859 341.069 288.923V290.829C338.968 290.702 336.962 290.639 335.051 290.639C333.141 290.575 331.198 290.543 329.224 290.543C327.823 290.543 326.486 290.575 325.212 290.639C324.002 290.639 322.919 290.702 321.964 290.829V288.923C323.302 288.669 324.671 287.811 326.072 286.349C327.473 284.887 328.842 282.408 330.179 278.913L351.959 223.144C352.978 223.208 354.061 223.239 355.207 223.239C356.417 223.239 357.532 223.208 358.551 223.144ZM365.237 263.374V265.281H336.771L337.726 263.374H365.237Z" fill="#DCD7CE"/>
<path d="M418.566 291.847C414.026 291.298 409.917 290.037 406.24 288.065C401.209 285.332 397.292 281.392 394.49 276.244C391.688 271.096 390.287 264.899 390.287 257.654C390.287 250.536 391.72 244.308 394.585 238.969C397.515 233.63 401.495 229.468 406.526 226.481C411.621 223.494 417.48 222 424.103 222C430.853 222 436.744 223.366 441.775 226.099C446.87 228.832 450.818 232.772 453.62 237.92C456.422 243.005 457.824 249.201 457.824 256.51C457.824 263.628 456.391 269.856 453.525 275.195C450.659 280.534 446.647 284.696 441.489 287.683C437.032 290.296 432.016 291.766 426.439 292.094C427.973 292.982 429.158 293.903 430.255 294.756C433.452 297.239 436.695 299.123 444.068 297.979C450.345 297.272 456.407 294.713 460.88 290.162C460.371 293.658 459.575 296.645 458.492 299.123C457.41 301.665 456.009 303.636 454.289 305.034C452.952 306.114 451.2 307.004 449.035 307.703C446.934 308.402 444.577 308.752 441.966 308.752C432.467 308.752 423.144 299.752 418.566 291.847ZM423.721 223.716C420.155 223.716 417.034 225.146 414.359 228.006C411.748 230.866 409.71 234.806 408.246 239.827C406.845 244.848 406.144 250.663 406.144 257.273C406.144 264.009 406.94 269.888 408.532 274.909C410.188 279.866 412.385 283.711 415.123 286.444C417.926 289.113 421.014 290.448 424.39 290.448C427.956 290.448 431.044 289.018 433.655 286.158C436.33 283.298 438.368 279.358 439.769 274.337C441.234 269.253 441.966 263.437 441.966 256.891C441.966 250.091 441.138 244.212 439.483 239.255C437.89 234.298 435.693 230.485 432.891 227.815C430.153 225.082 427.096 223.716 423.721 223.716Z" fill="#DCD7CE"/>
<path d="M418.566 291.847C414.026 291.298 409.917 290.037 406.24 288.065C401.209 285.332 397.292 281.392 394.49 276.244C391.688 271.096 390.287 264.899 390.287 257.654C390.287 250.536 391.72 244.308 394.585 238.969C397.515 233.63 401.495 229.468 406.526 226.481C411.621 223.494 417.48 222 424.103 222C430.853 222 436.744 223.366 441.775 226.099C446.87 228.832 450.818 232.772 453.62 237.92C456.422 243.005 457.824 249.201 457.824 256.51C457.824 263.628 456.391 269.856 453.525 275.195C450.659 280.534 446.647 284.696 441.489 287.683C437.032 290.296 432.016 291.766 426.439 292.094C427.973 292.982 429.158 293.903 430.255 294.756C433.452 297.239 436.695 299.123 444.068 297.979C450.345 297.272 456.407 294.713 460.88 290.162C460.371 293.658 459.575 296.645 458.492 299.123C457.41 301.665 456.009 303.636 454.289 305.034C452.952 306.114 451.2 307.004 449.035 307.703C446.934 308.402 444.577 308.752 441.966 308.752C432.467 308.752 423.144 299.752 418.566 291.847ZM423.721 223.716C420.155 223.716 417.034 225.146 414.359 228.006C411.748 230.866 409.71 234.806 408.246 239.827C406.845 244.848 406.144 250.663 406.144 257.273C406.144 264.009 406.94 269.888 408.532 274.909C410.188 279.866 412.385 283.711 415.123 286.444C417.926 289.113 421.014 290.448 424.39 290.448C427.956 290.448 431.044 289.018 433.655 286.158C436.33 283.298 438.368 279.358 439.769 274.337C441.234 269.253 441.966 263.437 441.966 256.891C441.966 250.091 441.138 244.212 439.483 239.255C437.89 234.298 435.693 230.485 432.891 227.815C430.153 225.082 427.096 223.716 423.721 223.716Z" fill="#A98B5D"/>
</g>
<g filter="url(#filter1_d_40000013_181)">
<path d="M80.7501 325.755V305.846H73V300.089H95.6015V305.846H87.8874V325.755H80.7501Z" fill="#DCD7CE"/>
<path d="M93.9653 325.755L105.104 300.089H112.133L123.307 325.755H115.882L107.158 303.646H109.97L101.247 325.755H93.9653ZM100.057 320.769L101.896 315.416H114.224L116.062 320.769H100.057Z" fill="#DCD7CE"/>
<path d="M125.331 325.755V300.089H132.468V319.999H144.508V325.755H125.331Z" fill="#DCD7CE"/>
<path d="M153.713 320.072L153.316 311.932L164.166 300.089H172.024L161.21 312.006L157.245 316.222L153.713 320.072ZM147.332 325.755V300.089H154.397V325.755H147.332ZM164.274 325.755L156.056 315.159L160.706 310.099L172.565 325.755H164.274Z" fill="#DCD7CE"/>
<path d="M182.777 326.269C180.711 326.269 178.716 326.012 176.794 325.499C174.895 324.961 173.345 324.277 172.144 323.445L174.487 318.092C175.616 318.826 176.914 319.437 178.38 319.926C179.87 320.39 181.348 320.622 182.813 320.622C183.799 320.622 184.592 320.537 185.193 320.366C185.793 320.17 186.226 319.926 186.49 319.632C186.779 319.314 186.923 318.948 186.923 318.532C186.923 317.946 186.658 317.481 186.13 317.139C185.601 316.797 184.916 316.516 184.075 316.296C183.234 316.076 182.297 315.856 181.263 315.636C180.254 315.416 179.233 315.135 178.199 314.792C177.19 314.45 176.265 314.01 175.424 313.472C174.583 312.91 173.898 312.189 173.369 311.309C172.84 310.405 172.576 309.268 172.576 307.899C172.576 306.359 172.985 304.966 173.802 303.719C174.643 302.473 175.892 301.47 177.551 300.713C179.209 299.955 181.275 299.576 183.751 299.576C185.409 299.576 187.031 299.771 188.617 300.163C190.227 300.529 191.657 301.079 192.907 301.813L190.708 307.202C189.506 306.542 188.317 306.054 187.139 305.736C185.962 305.394 184.82 305.222 183.715 305.222C182.729 305.222 181.936 305.332 181.336 305.552C180.735 305.748 180.302 306.017 180.038 306.359C179.773 306.701 179.641 307.092 179.641 307.532C179.641 308.095 179.894 308.547 180.398 308.889C180.927 309.207 181.612 309.476 182.453 309.696C183.318 309.891 184.255 310.099 185.265 310.319C186.298 310.539 187.319 310.82 188.329 311.162C189.362 311.48 190.299 311.92 191.14 312.482C191.981 313.02 192.654 313.741 193.159 314.646C193.688 315.526 193.952 316.638 193.952 317.982C193.952 319.473 193.531 320.854 192.69 322.126C191.873 323.372 190.636 324.374 188.977 325.132C187.343 325.89 185.277 326.269 182.777 326.269Z" fill="#DCD7CE"/>
</g>
<defs>
<filter id="filter0_d_40000013_181" x="69" y="222" width="395.88" height="94.7517" filterUnits="userSpaceOnUse" color-interpolation-filters="sRGB">
<feFlood flood-opacity="0" result="BackgroundImageFix"/>
<feColorMatrix in="SourceAlpha" type="matrix" values="0 0 0 0 0 0 0 0 0 0 0 0 0 0 0 0 0 0 127 0" result="hardAlpha"/>
<feOffset dy="4"/>
<feGaussianBlur stdDeviation="2"/>
<feComposite in2="hardAlpha" operator="out"/>
<feColorMatrix type="matrix" values="0 0 0 0 0 0 0 0 0 0 0 0 0 0 0 0 0 0 0.25 0"/>
<feBlend mode="normal" in2="BackgroundImageFix" result="effect1_dropShadow_40000013_181"/>
<feBlend mode="normal" in="SourceGraphic" in2="effect1_dropShadow_40000013_181" result="shape"/>
</filter>
<filter id="filter1_d_40000013_181" x="69" y="299.576" width="128.952" height="34.6929" filterUnits="userSpaceOnUse" color-interpolation-filters="sRGB">
<feFlood flood-opacity="0" result="BackgroundImageFix"/>
<feColorMatrix in="SourceAlpha" type="matrix" values="0 0 0 0 0 0 0 0 0 0 0 0 0 0 0 0 0 0 127 0" result="hardAlpha"/>
<feOffset dy="4"/>
<feGaussianBlur stdDeviation="2"/>
<feComposite in2="hardAlpha" operator="out"/>
<feColorMatrix type="matrix" values="0 0 0 0 0 0 0 0 0 0 0 0 0 0 0 0 0 0 0.25 0"/>
<feBlend mode="normal" in2="BackgroundImageFix" result="effect1_dropShadow_40000013_181"/>
<feBlend mode="normal" in="SourceGraphic" in2="effect1_dropShadow_40000013_181" result="shape"/>
</filter>
</defs>
</svg>
