<svg width="532" height="532" viewBox="0 0 532 532" fill="none" xmlns="http://www.w3.org/2000/svg">
<rect width="532" height="532" fill="#232428"/>
<g filter="url(#filter0_d_40000013_183)">
<path fill-rule="evenodd" clip-rule="evenodd" d="M259.503 166.659L217.558 141V250H222.046V192.342L259.503 215.158V166.659Z" fill="#DCD7CE"/>
<path fill-rule="evenodd" clip-rule="evenodd" d="M221.938 247.559L217.449 250C217.449 250 204.854 250 222.046 250C239.238 250 258.686 242.517 266.857 220.272C259.23 222.497 221.938 247.559 221.938 247.559Z" fill="#DCD7CE"/>
<path fill-rule="evenodd" clip-rule="evenodd" d="M221.938 247.559L217.449 250C217.449 250 204.854 250 222.046 250C239.238 250 258.686 242.517 266.857 220.272C259.23 222.497 221.938 247.559 221.938 247.559Z" fill="#A98B5D"/>
<path d="M268.772 177.141L272.382 173.749V216.518L268.772 213.096V177.141Z" fill="#DCD7CE"/>
<path d="M279.927 164.462L283.537 161.04V229.715L279.927 226.294V164.462Z" fill="#A98B5D"/>
<path d="M291.081 173.749L294.691 170.327V218.229L291.081 214.807V173.749Z" fill="#DCD7CE"/>
<path d="M302.235 161.04L305.845 157.619L305.845 233.381L302.235 229.96L302.235 161.04Z" fill="#A98B5D"/>
<path d="M313.389 144.421L317 141L316.999 250L313.389 246.578L313.389 144.421Z" fill="#DCD7CE"/>
</g>
<g filter="url(#filter1_d_40000013_183)">
<path d="M133.856 291.335V293.241C131.818 293.495 130.29 294.036 129.271 294.862C128.252 295.625 127.551 296.864 127.169 298.58C126.851 300.296 126.692 302.711 126.692 305.825V359.02C125.927 358.957 125.131 358.925 124.303 358.925C123.539 358.925 122.711 358.957 121.82 359.02L80.3615 306.588V343.195C80.3615 346.691 80.5526 349.392 80.9347 351.298C81.3168 353.141 82.1447 354.476 83.4184 355.302C84.7557 356.065 86.8254 356.605 89.6275 356.923V358.829C88.4175 358.702 86.8254 358.639 84.8512 358.639C82.877 358.575 81.0302 358.543 79.3107 358.543C77.846 358.543 76.3494 358.575 74.821 358.639C73.2926 358.639 72.0189 358.702 71 358.829V356.923C73.0379 356.605 74.5663 356.065 75.5852 355.302C76.6042 354.539 77.2729 353.3 77.5913 351.584C77.9734 349.805 78.1644 347.39 78.1644 344.339V301.44C78.1644 299.088 77.9734 297.372 77.5913 296.292C77.2729 295.148 76.5723 294.385 75.4897 294.004C74.4708 293.559 72.9742 293.305 71 293.241V291.335C72.0189 291.398 73.2926 291.462 74.821 291.525C76.3494 291.589 77.846 291.621 79.3107 291.621C80.8392 291.621 82.3039 291.589 83.7049 291.525C85.106 291.462 86.3797 291.398 87.526 291.335L124.494 336.808V306.969C124.494 303.474 124.303 300.804 123.921 298.961C123.539 297.055 122.679 295.688 121.342 294.862C120.068 294.036 118.031 293.495 115.228 293.241V291.335C116.438 291.398 118.031 291.462 120.005 291.525C121.979 291.589 123.826 291.621 125.545 291.621C127.074 291.621 128.57 291.589 130.035 291.525C131.563 291.462 132.837 291.398 133.856 291.335Z" fill="#DCD7CE"/>
<path d="M170.536 291.144L193.749 350.822C194.641 353.11 195.628 354.698 196.71 355.588C197.857 356.414 198.876 356.859 199.767 356.923V358.829C197.857 358.702 195.596 358.639 192.985 358.639C190.438 358.575 187.858 358.543 185.247 358.543C182.318 358.543 179.548 358.575 176.937 358.639C174.326 358.639 172.256 358.702 170.727 358.829V356.923C173.975 356.796 176.013 356.255 176.841 355.302C177.733 354.285 177.542 352.156 176.268 348.915L160.029 304.586L161.748 302.107L147.228 339.858C145.827 343.354 144.967 346.214 144.649 348.438C144.394 350.663 144.553 352.379 145.127 353.586C145.763 354.794 146.75 355.652 148.088 356.16C149.489 356.605 151.145 356.859 153.055 356.923V358.829C150.954 358.702 148.948 358.639 147.037 358.639C145.127 358.575 143.184 358.543 141.21 358.543C139.809 358.543 138.472 358.575 137.198 358.639C135.988 358.639 134.905 358.702 133.95 358.829V356.923C135.287 356.669 136.657 355.811 138.058 354.349C139.459 352.887 140.828 350.408 142.165 346.913L163.945 291.144C164.964 291.208 166.047 291.239 167.193 291.239C168.403 291.239 169.517 291.208 170.536 291.144ZM177.223 331.374V333.281H148.757L149.712 331.374H177.223Z" fill="#DCD7CE"/>
<path d="M200.48 291.335C202.072 291.398 204.206 291.462 206.88 291.525C209.619 291.589 212.325 291.621 215 291.621C218.057 291.621 221.018 291.589 223.884 291.525C226.75 291.462 228.788 291.43 229.998 291.43C235.92 291.43 240.824 292.097 244.708 293.432C248.657 294.703 251.586 296.578 253.497 299.057C255.471 301.535 256.458 304.522 256.458 308.018C256.458 310.179 256.012 312.371 255.121 314.596C254.229 316.756 252.701 318.79 250.536 320.697C248.434 322.54 245.536 324.033 241.843 325.177C238.149 326.258 233.5 326.798 227.896 326.798H218.725V324.891H226.941C230.698 324.891 233.532 324.192 235.442 322.794C237.417 321.332 238.754 319.426 239.455 317.074C240.219 314.659 240.601 311.99 240.601 309.066C240.601 304.046 239.709 300.169 237.926 297.436C236.143 294.639 233.086 293.241 228.756 293.241C226.272 293.241 224.648 293.781 223.884 294.862C223.183 295.942 222.833 298.135 222.833 301.44V348.724C222.833 351.012 222.992 352.728 223.311 353.872C223.693 355.016 224.393 355.779 225.412 356.16C226.431 356.541 227.96 356.796 229.998 356.923V358.829C228.278 358.702 226.113 358.639 223.502 358.639C220.891 358.575 218.248 358.543 215.573 358.543C212.516 358.543 209.619 358.575 206.88 358.639C204.206 358.639 202.072 358.702 200.48 358.829V356.923C202.518 356.796 204.046 356.541 205.065 356.16C206.084 355.779 206.753 355.016 207.071 353.872C207.453 352.728 207.644 351.012 207.644 348.724V301.44C207.644 299.088 207.453 297.372 207.071 296.292C206.753 295.148 206.052 294.385 204.97 294.004C203.951 293.559 202.454 293.305 200.48 293.241V291.335ZM218.534 325.177C221.273 325.241 223.629 325.368 225.603 325.559C227.641 325.749 229.424 325.94 230.953 326.131C232.481 326.258 233.85 326.353 235.06 326.417C240.856 326.925 245.122 328.164 247.861 330.135C250.663 332.105 252.478 335.06 253.306 339L255.503 348.82C256.076 351.362 256.681 353.141 257.318 354.158C257.955 355.175 258.878 355.683 260.088 355.683C260.916 355.62 261.585 355.429 262.094 355.111C262.667 354.73 263.272 354.19 263.909 353.491L265.247 354.635C263.527 356.605 261.68 358.003 259.706 358.829C257.732 359.719 255.344 360.164 252.542 360.164C249.103 360.164 246.269 359.433 244.04 357.971C241.811 356.51 240.346 353.809 239.646 349.868L237.926 340.335C237.48 337.666 236.939 335.346 236.302 333.376C235.665 331.342 234.774 329.753 233.627 328.609C232.545 327.402 231.016 326.798 229.042 326.798H218.725L218.534 325.177Z" fill="#DCD7CE"/>
<path d="M324.42 291.335C324.166 294.576 323.975 297.69 323.847 300.677C323.783 303.664 323.752 305.952 323.752 307.541C323.752 308.939 323.783 310.274 323.847 311.545C323.911 312.816 323.975 313.896 324.038 314.786H321.841C320.822 309.448 319.517 305.221 317.925 302.107C316.396 298.993 314.549 296.8 312.384 295.529C310.219 294.195 307.671 293.527 304.742 293.527H302.545V347.962C302.545 350.504 302.8 352.41 303.309 353.682C303.882 354.953 304.901 355.811 306.366 356.255C307.831 356.637 309.964 356.859 312.766 356.923V358.829C310.792 358.766 308.149 358.702 304.838 358.639C301.59 358.575 298.183 358.543 294.616 358.543C291.114 358.543 287.802 358.575 284.682 358.639C281.561 358.702 279.046 358.766 277.135 358.829V356.923C280.001 356.859 282.166 356.637 283.631 356.255C285.095 355.811 286.083 354.953 286.592 353.682C287.102 352.41 287.356 350.504 287.356 347.962V293.527H285.255C282.325 293.527 279.778 294.195 277.613 295.529C275.447 296.8 273.601 298.993 272.072 302.107C270.544 305.158 269.206 309.384 268.06 314.786H265.863C265.99 313.896 266.054 312.816 266.054 311.545C266.118 310.274 266.15 308.939 266.15 307.541C266.15 305.952 266.086 303.664 265.959 300.677C265.895 297.69 265.736 294.576 265.481 291.335C268.41 291.398 271.595 291.462 275.033 291.525C278.536 291.589 282.039 291.621 285.541 291.621C289.044 291.621 292.196 291.621 294.998 291.621C297.864 291.621 301.016 291.621 304.455 291.621C307.958 291.621 311.461 291.589 314.963 291.525C318.466 291.462 321.618 291.398 324.42 291.335Z" fill="#DCD7CE"/>
<path d="M356.551 291.144L379.763 350.822C380.655 353.11 381.642 354.698 382.725 355.588C383.871 356.414 384.89 356.859 385.781 356.923V358.829C383.871 358.702 381.61 358.639 378.999 358.639C376.452 358.575 373.873 358.543 371.262 358.543C368.332 358.543 365.562 358.575 362.951 358.639C360.34 358.639 358.27 358.702 356.742 358.829V356.923C359.99 356.796 362.027 356.255 362.855 355.302C363.747 354.285 363.556 352.156 362.282 348.915L346.043 304.586L347.762 302.107L333.242 339.858C331.841 343.354 330.981 346.214 330.663 348.438C330.408 350.663 330.568 352.379 331.141 353.586C331.778 354.794 332.765 355.652 334.102 356.16C335.503 356.605 337.159 356.859 339.069 356.923V358.829C336.968 358.702 334.962 358.639 333.051 358.639C331.141 358.575 329.198 358.543 327.224 358.543C325.823 358.543 324.486 358.575 323.212 358.639C322.002 358.639 320.919 358.702 319.964 358.829V356.923C321.302 356.669 322.671 355.811 324.072 354.349C325.473 352.887 326.842 350.408 328.179 346.913L349.959 291.144C350.978 291.208 352.061 291.239 353.207 291.239C354.417 291.239 355.532 291.208 356.551 291.144ZM363.237 331.374V333.281H334.771L335.726 331.374H363.237Z" fill="#DCD7CE"/>
<path d="M416.566 359.847C412.026 359.298 407.917 358.037 404.24 356.065C399.209 353.332 395.292 349.392 392.49 344.244C389.688 339.096 388.287 332.899 388.287 325.654C388.287 318.536 389.72 312.308 392.585 306.969C395.515 301.63 399.495 297.468 404.526 294.481C409.621 291.494 415.48 290 422.103 290C428.853 290 434.744 291.366 439.775 294.099C444.87 296.832 448.818 300.772 451.62 305.92C454.422 311.005 455.824 317.201 455.824 324.51C455.824 331.628 454.391 337.856 451.525 343.195C448.659 348.534 444.647 352.696 439.489 355.683C435.032 358.296 430.016 359.766 424.439 360.094C425.973 360.982 427.158 361.903 428.255 362.756C431.452 365.239 434.695 367.123 442.068 365.979C448.345 365.272 454.407 362.713 458.88 358.162C458.371 361.658 457.575 364.645 456.492 367.123C455.41 369.665 454.009 371.636 452.289 373.034C450.952 374.114 449.2 375.004 447.035 375.703C444.934 376.402 442.577 376.752 439.966 376.752C430.467 376.752 421.144 367.752 416.566 359.847ZM421.721 291.716C418.155 291.716 415.034 293.146 412.359 296.006C409.748 298.866 407.71 302.806 406.246 307.827C404.845 312.848 404.144 318.663 404.144 325.273C404.144 332.009 404.94 337.888 406.532 342.909C408.188 347.866 410.385 351.711 413.123 354.444C415.926 357.113 419.014 358.448 422.39 358.448C425.956 358.448 429.044 357.018 431.655 354.158C434.33 351.298 436.368 347.358 437.769 342.337C439.234 337.253 439.966 331.437 439.966 324.891C439.966 318.091 439.138 312.212 437.483 307.255C435.89 302.298 433.693 298.485 430.891 295.815C428.153 293.082 425.096 291.716 421.721 291.716Z" fill="#DCD7CE"/>
<path d="M416.566 359.847C412.026 359.298 407.917 358.037 404.24 356.065C399.209 353.332 395.292 349.392 392.49 344.244C389.688 339.096 388.287 332.899 388.287 325.654C388.287 318.536 389.72 312.308 392.585 306.969C395.515 301.63 399.495 297.468 404.526 294.481C409.621 291.494 415.48 290 422.103 290C428.853 290 434.744 291.366 439.775 294.099C444.87 296.832 448.818 300.772 451.62 305.92C454.422 311.005 455.824 317.201 455.824 324.51C455.824 331.628 454.391 337.856 451.525 343.195C448.659 348.534 444.647 352.696 439.489 355.683C435.032 358.296 430.016 359.766 424.439 360.094C425.973 360.982 427.158 361.903 428.255 362.756C431.452 365.239 434.695 367.123 442.068 365.979C448.345 365.272 454.407 362.713 458.88 358.162C458.371 361.658 457.575 364.645 456.492 367.123C455.41 369.665 454.009 371.636 452.289 373.034C450.952 374.114 449.2 375.004 447.035 375.703C444.934 376.402 442.577 376.752 439.966 376.752C430.467 376.752 421.144 367.752 416.566 359.847ZM421.721 291.716C418.155 291.716 415.034 293.146 412.359 296.006C409.748 298.866 407.71 302.806 406.246 307.827C404.845 312.848 404.144 318.663 404.144 325.273C404.144 332.009 404.94 337.888 406.532 342.909C408.188 347.866 410.385 351.711 413.123 354.444C415.926 357.113 419.014 358.448 422.39 358.448C425.956 358.448 429.044 357.018 431.655 354.158C434.33 351.298 436.368 347.358 437.769 342.337C439.234 337.253 439.966 331.437 439.966 324.891C439.966 318.091 439.138 312.212 437.483 307.255C435.89 302.298 433.693 298.485 430.891 295.815C428.153 293.082 425.096 291.716 421.721 291.716Z" fill="#A98B5D"/>
</g>
<g filter="url(#filter2_d_40000013_183)">
<path d="M78.7501 393.755V373.846H71V368.089H93.6015V373.846H85.8874V393.755H78.7501Z" fill="#DCD7CE"/>
<path d="M91.9653 393.755L103.104 368.089H110.133L121.307 393.755H113.882L105.158 371.646H107.97L99.2467 393.755H91.9653ZM98.0572 388.769L99.8956 383.416H112.224L114.062 388.769H98.0572Z" fill="#DCD7CE"/>
<path d="M123.331 393.755V368.089H130.468V387.999H142.508V393.755H123.331Z" fill="#DCD7CE"/>
<path d="M151.713 388.072L151.316 379.932L162.166 368.089H170.024L159.21 380.006L155.245 384.222L151.713 388.072ZM145.332 393.755V368.089H152.397V393.755H145.332ZM162.274 393.755L154.056 383.159L158.706 378.099L170.565 393.755H162.274Z" fill="#DCD7CE"/>
<path d="M180.777 394.269C178.711 394.269 176.716 394.012 174.794 393.499C172.895 392.961 171.345 392.277 170.144 391.445L172.487 386.092C173.616 386.826 174.914 387.437 176.38 387.926C177.87 388.39 179.348 388.622 180.813 388.622C181.799 388.622 182.592 388.537 183.193 388.366C183.793 388.17 184.226 387.926 184.49 387.632C184.779 387.314 184.923 386.948 184.923 386.532C184.923 385.946 184.658 385.481 184.13 385.139C183.601 384.797 182.916 384.516 182.075 384.296C181.234 384.076 180.297 383.856 179.263 383.636C178.254 383.416 177.233 383.135 176.199 382.792C175.19 382.45 174.265 382.01 173.424 381.472C172.583 380.91 171.898 380.189 171.369 379.309C170.84 378.405 170.576 377.268 170.576 375.899C170.576 374.359 170.985 372.966 171.802 371.719C172.643 370.473 173.892 369.47 175.551 368.713C177.209 367.955 179.275 367.576 181.751 367.576C183.409 367.576 185.031 367.771 186.617 368.163C188.227 368.529 189.657 369.079 190.907 369.813L188.708 375.202C187.506 374.542 186.317 374.054 185.139 373.736C183.962 373.394 182.82 373.222 181.715 373.222C180.729 373.222 179.936 373.332 179.336 373.552C178.735 373.748 178.302 374.017 178.038 374.359C177.773 374.701 177.641 375.092 177.641 375.532C177.641 376.095 177.894 376.547 178.398 376.889C178.927 377.207 179.612 377.476 180.453 377.696C181.318 377.891 182.255 378.099 183.265 378.319C184.298 378.539 185.319 378.82 186.329 379.162C187.362 379.48 188.299 379.92 189.14 380.482C189.981 381.02 190.654 381.741 191.159 382.646C191.688 383.526 191.952 384.638 191.952 385.982C191.952 387.473 191.531 388.854 190.69 390.126C189.873 391.372 188.636 392.374 186.977 393.132C185.343 393.89 183.277 394.269 180.777 394.269Z" fill="#DCD7CE"/>
</g>
<defs>
<filter id="filter0_d_40000013_183" x="209" y="141" width="112" height="117" filterUnits="userSpaceOnUse" color-interpolation-filters="sRGB">
<feFlood flood-opacity="0" result="BackgroundImageFix"/>
<feColorMatrix in="SourceAlpha" type="matrix" values="0 0 0 0 0 0 0 0 0 0 0 0 0 0 0 0 0 0 127 0" result="hardAlpha"/>
<feOffset dy="4"/>
<feGaussianBlur stdDeviation="2"/>
<feComposite in2="hardAlpha" operator="out"/>
<feColorMatrix type="matrix" values="0 0 0 0 0 0 0 0 0 0 0 0 0 0 0 0 0 0 0.25 0"/>
<feBlend mode="normal" in2="BackgroundImageFix" result="effect1_dropShadow_40000013_183"/>
<feBlend mode="normal" in="SourceGraphic" in2="effect1_dropShadow_40000013_183" result="shape"/>
</filter>
<filter id="filter1_d_40000013_183" x="67" y="290" width="395.88" height="94.7517" filterUnits="userSpaceOnUse" color-interpolation-filters="sRGB">
<feFlood flood-opacity="0" result="BackgroundImageFix"/>
<feColorMatrix in="SourceAlpha" type="matrix" values="0 0 0 0 0 0 0 0 0 0 0 0 0 0 0 0 0 0 127 0" result="hardAlpha"/>
<feOffset dy="4"/>
<feGaussianBlur stdDeviation="2"/>
<feComposite in2="hardAlpha" operator="out"/>
<feColorMatrix type="matrix" values="0 0 0 0 0 0 0 0 0 0 0 0 0 0 0 0 0 0 0.25 0"/>
<feBlend mode="normal" in2="BackgroundImageFix" result="effect1_dropShadow_40000013_183"/>
<feBlend mode="normal" in="SourceGraphic" in2="effect1_dropShadow_40000013_183" result="shape"/>
</filter>
<filter id="filter2_d_40000013_183" x="67" y="367.576" width="128.952" height="34.6929" filterUnits="userSpaceOnUse" color-interpolation-filters="sRGB">
<feFlood flood-opacity="0" result="BackgroundImageFix"/>
<feColorMatrix in="SourceAlpha" type="matrix" values="0 0 0 0 0 0 0 0 0 0 0 0 0 0 0 0 0 0 127 0" result="hardAlpha"/>
<feOffset dy="4"/>
<feGaussianBlur stdDeviation="2"/>
<feComposite in2="hardAlpha" operator="out"/>
<feColorMatrix type="matrix" values="0 0 0 0 0 0 0 0 0 0 0 0 0 0 0 0 0 0 0.25 0"/>
<feBlend mode="normal" in2="BackgroundImageFix" result="effect1_dropShadow_40000013_183"/>
<feBlend mode="normal" in="SourceGraphic" in2="effect1_dropShadow_40000013_183" result="shape"/>
</filter>
</defs>
</svg>
