<svg width="768" height="512" viewBox="0 0 768 512" fill="none" xmlns="http://www.w3.org/2000/svg">
<rect width="768" height="512" fill="#232428"/>
<g filter="url(#filter0_d_40000013_184)">
<path fill-rule="evenodd" clip-rule="evenodd" d="M166.95 237.895L124.602 212V322H129.133V263.813L166.95 286.839V237.895Z" fill="#DCD7CE"/>
<path fill-rule="evenodd" clip-rule="evenodd" d="M129.024 319.536L124.492 322C124.492 322 111.776 322 129.133 322C146.491 322 166.125 314.448 174.374 291.999C166.675 294.244 129.024 319.536 129.024 319.536Z" fill="#DCD7CE"/>
<path fill-rule="evenodd" clip-rule="evenodd" d="M129.024 319.536L124.492 322C124.492 322 111.776 322 129.133 322C146.491 322 166.125 314.448 174.374 291.999C166.675 294.244 129.024 319.536 129.024 319.536Z" fill="#A98B5D"/>
<path d="M176.308 248.473L179.953 245.049V288.211L176.308 284.758V248.473Z" fill="#DCD7CE"/>
<path d="M187.57 235.677L191.215 232.224V301.529L187.57 298.076V235.677Z" fill="#A98B5D"/>
<path d="M198.832 245.049L202.477 241.596V289.937L198.832 286.484V245.049Z" fill="#DCD7CE"/>
<path d="M210.093 232.224L213.738 228.771L213.738 305.229L210.093 301.776L210.093 232.224Z" fill="#A98B5D"/>
<path d="M221.355 215.453L225 212L224.999 322L221.354 318.547L221.355 215.453Z" fill="#DCD7CE"/>
</g>
<g filter="url(#filter1_d_40000013_184)">
<path d="M320.019 219.217V221.135C317.969 221.391 316.432 221.934 315.407 222.765C314.382 223.533 313.677 224.779 313.292 226.506C312.972 228.232 312.812 230.662 312.812 233.795V287.31C312.043 287.246 311.242 287.214 310.409 287.214C309.641 287.214 308.808 287.246 307.911 287.31L266.203 234.562V271.389C266.203 274.906 266.395 277.623 266.78 279.541C267.164 281.396 267.997 282.738 269.278 283.569C270.624 284.337 272.706 284.88 275.525 285.2V287.118C274.308 286.99 272.706 286.926 270.72 286.926C268.734 286.862 266.876 286.83 265.146 286.83C263.672 286.83 262.167 286.862 260.629 286.926C259.092 286.926 257.81 286.99 256.785 287.118V285.2C258.835 284.88 260.373 284.337 261.398 283.569C262.423 282.802 263.096 281.555 263.416 279.829C263.801 278.039 263.993 275.609 263.993 272.54V229.383C263.993 227.017 263.801 225.291 263.416 224.204C263.096 223.053 262.391 222.286 261.302 221.902C260.277 221.455 258.771 221.199 256.785 221.135V219.217C257.81 219.281 259.092 219.345 260.629 219.409C262.167 219.473 263.672 219.505 265.146 219.505C266.684 219.505 268.157 219.473 269.567 219.409C270.976 219.345 272.257 219.281 273.411 219.217L310.602 264.964V234.945C310.602 231.429 310.409 228.744 310.025 226.889C309.641 224.971 308.776 223.597 307.43 222.765C306.149 221.934 304.099 221.391 301.28 221.135V219.217C302.497 219.281 304.099 219.345 306.085 219.409C308.071 219.473 309.929 219.505 311.659 219.505C313.196 219.505 314.702 219.473 316.175 219.409C317.713 219.345 318.994 219.281 320.019 219.217Z" fill="#DCD7CE"/>
<path d="M356.921 219.025L380.273 279.062C381.17 281.364 382.163 282.962 383.252 283.857C384.406 284.688 385.431 285.136 386.328 285.2V287.118C384.406 286.99 382.131 286.926 379.504 286.926C376.942 286.862 374.347 286.83 371.72 286.83C368.773 286.83 365.986 286.862 363.359 286.926C360.733 286.926 358.65 286.99 357.113 287.118V285.2C360.38 285.072 362.43 284.529 363.263 283.569C364.16 282.546 363.968 280.405 362.687 277.144L346.35 232.548L348.079 230.054L333.472 268.033C332.063 271.549 331.198 274.426 330.877 276.664C330.621 278.902 330.781 280.628 331.358 281.843C331.999 283.058 332.992 283.921 334.337 284.433C335.746 284.88 337.412 285.136 339.334 285.2V287.118C337.22 286.99 335.202 286.926 333.28 286.926C331.358 286.862 329.404 286.83 327.418 286.83C326.008 286.83 324.663 286.862 323.381 286.926C322.164 286.926 321.075 286.99 320.114 287.118V285.2C321.459 284.944 322.837 284.081 324.246 282.61C325.656 281.14 327.033 278.646 328.379 275.13L350.29 219.025C351.315 219.089 352.404 219.121 353.557 219.121C354.774 219.121 355.896 219.089 356.921 219.025ZM363.648 259.497V261.415H335.01L335.971 259.497H363.648Z" fill="#DCD7CE"/>
<path d="M387.045 219.217C388.646 219.281 390.792 219.345 393.483 219.409C396.238 219.473 398.961 219.505 401.652 219.505C404.727 219.505 407.706 219.473 410.589 219.409C413.472 219.345 415.522 219.313 416.74 219.313C422.698 219.313 427.631 219.984 431.539 221.327C435.511 222.606 438.458 224.492 440.38 226.985C442.367 229.479 443.36 232.484 443.36 236C443.36 238.174 442.911 240.38 442.014 242.618C441.117 244.792 439.58 246.838 437.401 248.756C435.287 250.61 432.372 252.112 428.656 253.263C424.94 254.35 420.263 254.894 414.625 254.894H405.4V252.976H413.664C417.444 252.976 420.295 252.272 422.217 250.866C424.203 249.395 425.549 247.477 426.254 245.111C427.022 242.682 427.407 239.996 427.407 237.055C427.407 232.004 426.51 228.104 424.716 225.355C422.922 222.542 419.847 221.135 415.49 221.135C412.992 221.135 411.358 221.679 410.589 222.765C409.884 223.852 409.532 226.058 409.532 229.383V276.952C409.532 279.254 409.692 280.98 410.013 282.131C410.397 283.282 411.102 284.049 412.127 284.433C413.152 284.816 414.69 285.072 416.74 285.2V287.118C415.01 286.99 412.832 286.926 410.205 286.926C407.578 286.862 404.919 286.83 402.228 286.83C399.153 286.83 396.238 286.862 393.483 286.926C390.792 286.926 388.646 286.99 387.045 287.118V285.2C389.095 285.072 390.632 284.816 391.657 284.433C392.682 284.049 393.355 283.282 393.675 282.131C394.06 280.98 394.252 279.254 394.252 276.952V229.383C394.252 227.017 394.06 225.291 393.675 224.204C393.355 223.053 392.65 222.286 391.561 221.902C390.536 221.455 389.031 221.199 387.045 221.135V219.217ZM405.208 253.263C407.962 253.327 410.333 253.455 412.319 253.647C414.369 253.839 416.163 254.031 417.701 254.222C419.238 254.35 420.616 254.446 421.833 254.51C427.663 255.022 431.956 256.268 434.711 258.25C437.529 260.232 439.355 263.206 440.188 267.17L442.399 277.048C442.975 279.605 443.584 281.396 444.224 282.419C444.865 283.442 445.794 283.953 447.011 283.953C447.844 283.889 448.517 283.697 449.03 283.378C449.606 282.994 450.215 282.451 450.855 281.747L452.201 282.898C450.471 284.88 448.613 286.287 446.627 287.118C444.641 288.013 442.238 288.461 439.419 288.461C435.96 288.461 433.109 287.725 430.866 286.255C428.624 284.784 427.151 282.067 426.446 278.103L424.716 268.512C424.268 265.827 423.723 263.493 423.082 261.511C422.442 259.465 421.545 257.867 420.391 256.716C419.302 255.501 417.765 254.894 415.779 254.894H405.4L405.208 253.263Z" fill="#DCD7CE"/>
<path d="M511.731 219.217C511.475 222.478 511.282 225.611 511.154 228.616C511.09 231.621 511.058 233.922 511.058 235.521C511.058 236.927 511.09 238.27 511.154 239.549C511.218 240.828 511.282 241.915 511.346 242.81H509.136C508.111 237.439 506.798 233.187 505.196 230.054C503.658 226.921 501.8 224.716 499.622 223.437C497.444 222.094 494.881 221.423 491.934 221.423H489.724V276.185C489.724 278.742 489.98 280.66 490.492 281.939C491.069 283.218 492.094 284.081 493.568 284.529C495.041 284.912 497.188 285.136 500.006 285.2V287.118C498.02 287.054 495.362 286.99 492.03 286.926C488.763 286.862 485.335 286.83 481.747 286.83C478.224 286.83 474.892 286.862 471.753 286.926C468.614 286.99 466.083 287.054 464.161 287.118V285.2C467.044 285.136 469.222 284.912 470.696 284.529C472.169 284.081 473.162 283.218 473.675 281.939C474.187 280.66 474.444 278.742 474.444 276.185V221.423H472.329C469.382 221.423 466.82 222.094 464.641 223.437C462.463 224.716 460.605 226.921 459.068 230.054C457.53 233.123 456.185 237.375 455.031 242.81H452.821C452.949 241.915 453.013 240.828 453.013 239.549C453.077 238.27 453.109 236.927 453.109 235.521C453.109 233.922 453.045 231.621 452.917 228.616C452.853 225.611 452.693 222.478 452.437 219.217C455.384 219.281 458.587 219.345 462.047 219.409C465.57 219.473 469.094 219.505 472.618 219.505C476.141 219.505 479.313 219.505 482.132 219.505C485.015 219.505 488.186 219.505 491.646 219.505C495.169 219.505 498.693 219.473 502.217 219.409C505.741 219.345 508.912 219.281 511.731 219.217Z" fill="#DCD7CE"/>
<path d="M544.054 219.025L567.407 279.062C568.304 281.364 569.297 282.962 570.386 283.857C571.539 284.688 572.564 285.136 573.461 285.2V287.118C571.539 286.99 569.265 286.926 566.638 286.926C564.075 286.862 561.481 286.83 558.854 286.83C555.907 286.83 553.12 286.862 550.493 286.926C547.866 286.926 545.784 286.99 544.247 287.118V285.2C547.514 285.072 549.564 284.529 550.397 283.569C551.294 282.546 551.102 280.405 549.82 277.144L533.483 232.548L535.213 230.054L520.606 268.033C519.196 271.549 518.331 274.426 518.011 276.664C517.755 278.902 517.915 280.628 518.492 281.843C519.132 283.058 520.125 283.921 521.471 284.433C522.88 284.88 524.546 285.136 526.468 285.2V287.118C524.354 286.99 522.336 286.926 520.414 286.926C518.492 286.862 516.538 286.83 514.551 286.83C513.142 286.83 511.797 286.862 510.515 286.926C509.298 286.926 508.209 286.99 507.248 287.118V285.2C508.593 284.944 509.971 284.081 511.38 282.61C512.79 281.14 514.167 278.646 515.512 275.13L537.423 219.025C538.449 219.089 539.538 219.121 540.691 219.121C541.908 219.121 543.029 219.089 544.054 219.025ZM550.781 259.497V261.415H522.143L523.104 259.497H550.781Z" fill="#DCD7CE"/>
<path d="M604.431 288.141C599.863 287.589 595.73 286.321 592.03 284.337C586.969 281.587 583.029 277.623 580.21 272.444C577.391 267.266 575.982 261.032 575.982 253.743C575.982 246.582 577.423 240.316 580.306 234.945C583.253 229.575 587.258 225.387 592.319 222.382C597.444 219.377 603.338 217.874 610.001 217.874C616.792 217.874 622.719 219.249 627.78 221.998C632.905 224.747 636.878 228.712 639.696 233.89C642.515 239.005 643.925 245.239 643.925 252.592C643.925 259.753 642.483 266.019 639.6 271.389C636.717 276.76 632.681 280.948 627.492 283.953C623.009 286.582 617.962 288.06 612.351 288.39C613.895 289.284 615.087 290.21 616.191 291.068C619.406 293.566 622.669 295.462 630.086 294.311C636.401 293.599 642.5 291.025 647 286.447C646.488 289.963 645.687 292.968 644.598 295.462C643.508 298.019 642.099 300.001 640.369 301.408C639.024 302.495 637.262 303.39 635.084 304.093C632.969 304.797 630.599 305.148 627.972 305.148C618.415 305.148 609.037 296.094 604.431 288.141ZM609.617 219.601C606.029 219.601 602.89 221.039 600.199 223.916C597.572 226.793 595.522 230.758 594.049 235.809C592.639 240.86 591.934 246.71 591.934 253.359C591.934 260.137 592.735 266.051 594.337 271.102C596.003 276.089 598.213 279.957 600.968 282.706C603.787 285.392 606.894 286.734 610.29 286.734C613.877 286.734 616.985 285.296 619.611 282.419C622.302 279.541 624.352 275.577 625.762 270.526C627.235 265.411 627.972 259.561 627.972 252.976C627.972 246.134 627.139 240.22 625.474 235.233C623.872 230.246 621.662 226.41 618.843 223.724C616.088 220.975 613.013 219.601 609.617 219.601Z" fill="#DCD7CE"/>
<path d="M604.431 288.141C599.863 287.589 595.73 286.321 592.03 284.337C586.969 281.587 583.029 277.623 580.21 272.444C577.391 267.266 575.982 261.032 575.982 253.743C575.982 246.582 577.423 240.316 580.306 234.945C583.253 229.575 587.258 225.387 592.319 222.382C597.444 219.377 603.338 217.874 610.001 217.874C616.792 217.874 622.719 219.249 627.78 221.998C632.905 224.747 636.878 228.712 639.696 233.89C642.515 239.005 643.925 245.239 643.925 252.592C643.925 259.753 642.483 266.019 639.6 271.389C636.717 276.76 632.681 280.948 627.492 283.953C623.009 286.582 617.962 288.06 612.351 288.39C613.895 289.284 615.087 290.21 616.191 291.068C619.406 293.566 622.669 295.462 630.086 294.311C636.401 293.599 642.5 291.025 647 286.447C646.488 289.963 645.687 292.968 644.598 295.462C643.508 298.019 642.099 300.001 640.369 301.408C639.024 302.495 637.262 303.39 635.084 304.093C632.969 304.797 630.599 305.148 627.972 305.148C618.415 305.148 609.037 296.094 604.431 288.141ZM609.617 219.601C606.029 219.601 602.89 221.039 600.199 223.916C597.572 226.793 595.522 230.758 594.049 235.809C592.639 240.86 591.934 246.71 591.934 253.359C591.934 260.137 592.735 266.051 594.337 271.102C596.003 276.089 598.213 279.957 600.968 282.706C603.787 285.392 606.894 286.734 610.29 286.734C613.877 286.734 616.985 285.296 619.611 282.419C622.302 279.541 624.352 275.577 625.762 270.526C627.235 265.411 627.972 259.561 627.972 252.976C627.972 246.134 627.139 240.22 625.474 235.233C623.872 230.246 621.662 226.41 618.843 223.724C616.088 220.975 613.013 219.601 609.617 219.601Z" fill="#A98B5D"/>
</g>
<g filter="url(#filter2_d_40000013_184)">
<path d="M264.582 322.254V302.225H256.785V296.434H279.523V302.225H271.762V322.254H264.582Z" fill="#DCD7CE"/>
<path d="M277.877 322.254L289.082 296.434H296.154L307.395 322.254H299.925L291.149 300.012H293.978L285.202 322.254H277.877ZM284.005 317.238L285.855 311.852H298.257L300.106 317.238H284.005Z" fill="#DCD7CE"/>
<path d="M309.431 322.254V296.434H316.611V316.463H328.723V322.254H309.431Z" fill="#DCD7CE"/>
<path d="M337.984 316.537L337.585 308.348L348.5 296.434H356.406L345.526 308.422L341.537 312.664L337.984 316.537ZM331.565 322.254V296.434H338.673V322.254H331.565ZM348.609 322.254L340.341 311.594L345.019 306.504L356.95 322.254H348.609Z" fill="#DCD7CE"/>
<path d="M367.223 322.771C365.144 322.771 363.138 322.513 361.203 321.996C359.294 321.455 357.734 320.767 356.525 319.93L358.883 314.545C360.019 315.283 361.324 315.898 362.799 316.389C364.298 316.857 365.785 317.09 367.26 317.09C368.251 317.09 369.049 317.004 369.653 316.832C370.257 316.635 370.693 316.389 370.958 316.094C371.249 315.775 371.394 315.406 371.394 314.988C371.394 314.397 371.128 313.93 370.596 313.586C370.064 313.242 369.375 312.959 368.529 312.738C367.683 312.516 366.74 312.295 365.7 312.074C364.685 311.852 363.657 311.569 362.618 311.225C361.602 310.881 360.672 310.438 359.825 309.897C358.979 309.332 358.29 308.606 357.758 307.721C357.227 306.811 356.961 305.668 356.961 304.291C356.961 302.741 357.372 301.34 358.194 300.085C359.04 298.831 360.297 297.823 361.965 297.061C363.633 296.298 365.712 295.917 368.202 295.917C369.871 295.917 371.502 296.114 373.098 296.507C374.718 296.876 376.156 297.43 377.413 298.167L375.201 303.59C373.993 302.926 372.796 302.434 371.611 302.114C370.427 301.77 369.278 301.598 368.166 301.598C367.175 301.598 366.377 301.708 365.773 301.93C365.168 302.126 364.733 302.397 364.467 302.741C364.201 303.086 364.068 303.479 364.068 303.922C364.068 304.487 364.322 304.942 364.83 305.286C365.362 305.606 366.051 305.877 366.897 306.098C367.767 306.295 368.71 306.504 369.725 306.725C370.765 306.946 371.793 307.229 372.808 307.573C373.847 307.893 374.79 308.336 375.637 308.901C376.483 309.442 377.16 310.168 377.667 311.078C378.199 311.963 378.465 313.082 378.465 314.434C378.465 315.934 378.042 317.324 377.196 318.603C376.374 319.857 375.129 320.865 373.461 321.627C371.817 322.39 369.738 322.771 367.223 322.771Z" fill="#DCD7CE"/>
</g>
<defs>
<filter id="filter0_d_40000013_184" x="116" y="212" width="113" height="118" filterUnits="userSpaceOnUse" color-interpolation-filters="sRGB">
<feFlood flood-opacity="0" result="BackgroundImageFix"/>
<feColorMatrix in="SourceAlpha" type="matrix" values="0 0 0 0 0 0 0 0 0 0 0 0 0 0 0 0 0 0 127 0" result="hardAlpha"/>
<feOffset dy="4"/>
<feGaussianBlur stdDeviation="2"/>
<feComposite in2="hardAlpha" operator="out"/>
<feColorMatrix type="matrix" values="0 0 0 0 0 0 0 0 0 0 0 0 0 0 0 0 0 0 0.25 0"/>
<feBlend mode="normal" in2="BackgroundImageFix" result="effect1_dropShadow_40000013_184"/>
<feBlend mode="normal" in="SourceGraphic" in2="effect1_dropShadow_40000013_184" result="shape"/>
</filter>
<filter id="filter1_d_40000013_184" x="252.785" y="217.874" width="398.215" height="95.2739" filterUnits="userSpaceOnUse" color-interpolation-filters="sRGB">
<feFlood flood-opacity="0" result="BackgroundImageFix"/>
<feColorMatrix in="SourceAlpha" type="matrix" values="0 0 0 0 0 0 0 0 0 0 0 0 0 0 0 0 0 0 127 0" result="hardAlpha"/>
<feOffset dy="4"/>
<feGaussianBlur stdDeviation="2"/>
<feComposite in2="hardAlpha" operator="out"/>
<feColorMatrix type="matrix" values="0 0 0 0 0 0 0 0 0 0 0 0 0 0 0 0 0 0 0.25 0"/>
<feBlend mode="normal" in2="BackgroundImageFix" result="effect1_dropShadow_40000013_184"/>
<feBlend mode="normal" in="SourceGraphic" in2="effect1_dropShadow_40000013_184" result="shape"/>
</filter>
<filter id="filter2_d_40000013_184" x="252.785" y="295.917" width="129.68" height="34.8535" filterUnits="userSpaceOnUse" color-interpolation-filters="sRGB">
<feFlood flood-opacity="0" result="BackgroundImageFix"/>
<feColorMatrix in="SourceAlpha" type="matrix" values="0 0 0 0 0 0 0 0 0 0 0 0 0 0 0 0 0 0 127 0" result="hardAlpha"/>
<feOffset dy="4"/>
<feGaussianBlur stdDeviation="2"/>
<feComposite in2="hardAlpha" operator="out"/>
<feColorMatrix type="matrix" values="0 0 0 0 0 0 0 0 0 0 0 0 0 0 0 0 0 0 0.25 0"/>
<feBlend mode="normal" in2="BackgroundImageFix" result="effect1_dropShadow_40000013_184"/>
<feBlend mode="normal" in="SourceGraphic" in2="effect1_dropShadow_40000013_184" result="shape"/>
</filter>
</defs>
</svg>
