<svg width="535" height="119" viewBox="0 0 535 119" fill="none" xmlns="http://www.w3.org/2000/svg">
<g filter="url(#filter0_d_40000013_207)">
<path fill-rule="evenodd" clip-rule="evenodd" d="M50.9497 25.8947L8.60152 0V110H13.1334V51.8128L50.9497 74.8385V25.8947Z" fill="white"/>
<path fill-rule="evenodd" clip-rule="evenodd" d="M13.0238 107.536L8.4919 110C8.4919 110 -4.22393 110 13.1334 110C30.4908 110 50.1249 102.448 58.3744 79.9994C50.6747 82.2443 13.0238 107.536 13.0238 107.536Z" fill="white"/>
<path fill-rule="evenodd" clip-rule="evenodd" d="M13.0238 107.536L8.4919 110C8.4919 110 -4.22393 110 13.1334 110C30.4908 110 50.1249 102.448 58.3744 79.9994C50.6747 82.2443 13.0238 107.536 13.0238 107.536Z" fill="#A98B5D"/>
<path d="M60.3079 36.4728L63.9531 33.0493V76.2108L60.3079 72.7578V36.4728Z" fill="white"/>
<path d="M71.57 23.677L75.2152 20.2242V89.5292L71.57 86.0762V23.677Z" fill="#A98B5D"/>
<path d="M82.8316 33.0492L86.4768 29.5964V77.9372L82.8316 74.4843V33.0492Z" fill="white"/>
<path d="M94.0927 20.2241L97.7379 16.7713L97.7378 93.2287L94.0925 89.7757L94.0927 20.2241Z" fill="#A98B5D"/>
<path d="M105.355 3.45281L109 0L108.999 110L105.354 106.547L105.355 3.45281Z" fill="white"/>
</g>
<g filter="url(#filter1_d_40000013_207)">
<path d="M204.019 7.2167V9.13481C201.969 9.39056 200.432 9.93402 199.407 10.7652C198.382 11.5324 197.677 12.7792 197.292 14.5055C196.972 16.2318 196.812 18.6614 196.812 21.7943V75.3095C196.043 75.2456 195.242 75.2136 194.409 75.2136C193.641 75.2136 192.808 75.2456 191.911 75.3095L150.203 22.5616V59.3892C150.203 62.9058 150.395 65.6231 150.78 67.5412C151.164 69.3953 151.997 70.738 153.278 71.5692C154.624 72.3365 156.706 72.8799 159.525 73.1996V75.1177C158.308 74.9898 156.706 74.9259 154.72 74.9259C152.734 74.862 150.876 74.83 149.146 74.83C147.672 74.83 146.167 74.862 144.629 74.9259C143.092 74.9259 141.81 74.9898 140.785 75.1177V73.1996C142.835 72.8799 144.373 72.3365 145.398 71.5692C146.423 70.802 147.096 69.5552 147.416 67.8289C147.801 66.0387 147.993 63.6091 147.993 60.5401V17.3827C147.993 15.017 147.801 13.2907 147.416 12.2038C147.096 11.0529 146.391 10.2857 145.302 9.90205C144.277 9.45449 142.771 9.19875 140.785 9.13481V7.2167C141.81 7.28064 143.092 7.34458 144.629 7.40851C146.167 7.47245 147.672 7.50442 149.146 7.50442C150.684 7.50442 152.157 7.47245 153.567 7.40851C154.976 7.34458 156.257 7.28064 157.411 7.2167L194.602 52.9636V22.9452C194.602 19.4287 194.409 16.7433 194.025 14.8891C193.641 12.971 192.776 11.5964 191.43 10.7652C190.149 9.93402 188.099 9.39056 185.28 9.13481V7.2167C186.497 7.28064 188.099 7.34458 190.085 7.40851C192.071 7.47245 193.929 7.50442 195.659 7.50442C197.196 7.50442 198.702 7.47245 200.175 7.40851C201.713 7.34458 202.994 7.28064 204.019 7.2167Z" fill="white"/>
<path d="M240.921 7.02489L264.273 67.0616C265.17 69.3634 266.163 70.9618 267.252 71.8569C268.406 72.6881 269.431 73.1357 270.328 73.1996V75.1177C268.406 74.9898 266.131 74.9259 263.504 74.9259C260.942 74.862 258.347 74.83 255.72 74.83C252.773 74.83 249.986 74.862 247.359 74.9259C244.733 74.9259 242.65 74.9898 241.113 75.1177V73.1996C244.38 73.0717 246.43 72.5283 247.263 71.5692C248.16 70.5462 247.968 68.4043 246.687 65.1435L230.35 20.5475L232.079 18.054L217.472 56.0325C216.063 59.5491 215.198 62.4262 214.877 64.664C214.621 66.9018 214.781 68.6281 215.358 69.8429C215.999 71.0577 216.992 71.9209 218.337 72.4324C219.746 72.8799 221.412 73.1357 223.334 73.1996V75.1177C221.22 74.9898 219.202 74.9259 217.28 74.9259C215.358 74.862 213.404 74.83 211.418 74.83C210.008 74.83 208.663 74.862 207.381 74.9259C206.164 74.9259 205.075 74.9898 204.114 75.1177V73.1996C205.459 72.9438 206.837 72.0807 208.246 70.6101C209.656 69.1396 211.033 66.6461 212.379 63.1295L234.29 7.02489C235.315 7.08883 236.404 7.12079 237.557 7.12079C238.774 7.12079 239.896 7.08883 240.921 7.02489ZM247.648 47.497V49.4151H219.01L219.971 47.497H247.648Z" fill="white"/>
<path d="M271.045 7.2167C272.646 7.28064 274.792 7.34458 277.483 7.40851C280.238 7.47245 282.961 7.50442 285.652 7.50442C288.727 7.50442 291.706 7.47245 294.589 7.40851C297.472 7.34458 299.522 7.31261 300.74 7.31261C306.698 7.31261 311.631 7.98394 315.539 9.32662C319.511 10.6054 322.458 12.4915 324.38 14.985C326.367 17.4786 327.36 20.4836 327.36 24.0001C327.36 26.174 326.911 28.3798 326.014 30.6176C325.117 32.7915 323.58 34.8375 321.401 36.7556C319.287 38.6097 316.372 40.1122 312.656 41.2631C308.94 42.35 304.263 42.8935 298.625 42.8935H289.4V40.9754H297.664C301.444 40.9754 304.295 40.2721 306.217 38.8655C308.203 37.3949 309.549 35.4768 310.254 33.1112C311.022 30.6815 311.407 27.9962 311.407 25.0551C311.407 20.0041 310.51 16.1039 308.716 13.3546C306.922 10.5414 303.847 9.13481 299.49 9.13481C296.992 9.13481 295.358 9.67827 294.589 10.7652C293.884 11.8521 293.532 14.0579 293.532 17.3827V64.9517C293.532 67.2535 293.692 68.9798 294.013 70.1306C294.397 71.2815 295.102 72.0487 296.127 72.4324C297.152 72.816 298.69 73.0717 300.74 73.1996V75.1177C299.01 74.9898 296.832 74.9259 294.205 74.9259C291.578 74.862 288.919 74.83 286.228 74.83C283.153 74.83 280.238 74.862 277.483 74.9259C274.792 74.9259 272.646 74.9898 271.045 75.1177V73.1996C273.095 73.0717 274.632 72.816 275.657 72.4324C276.682 72.0487 277.355 71.2815 277.675 70.1306C278.06 68.9798 278.252 67.2535 278.252 64.9517V17.3827C278.252 15.017 278.06 13.2907 277.675 12.2038C277.355 11.0529 276.65 10.2857 275.561 9.90205C274.536 9.45449 273.031 9.19875 271.045 9.13481V7.2167ZM289.208 41.2631C291.962 41.327 294.333 41.4549 296.319 41.6467C298.369 41.8385 300.163 42.0303 301.701 42.2222C303.238 42.35 304.616 42.4459 305.833 42.5099C311.663 43.0214 315.956 44.2681 318.711 46.2502C321.529 48.2322 323.355 51.2053 324.188 55.1694L326.399 65.0476C326.975 67.6051 327.584 69.3954 328.224 70.4183C328.865 71.4413 329.794 71.9528 331.011 71.9528C331.844 71.8889 332.517 71.6971 333.03 71.3774C333.606 70.9938 334.215 70.4503 334.855 69.747L336.201 70.8979C334.471 72.8799 332.613 74.2865 330.627 75.1177C328.641 76.0128 326.238 76.4604 323.419 76.4604C319.96 76.4604 317.109 75.7251 314.866 74.2546C312.624 72.784 311.151 70.0667 310.446 66.1026L308.716 56.5121C308.268 53.8267 307.723 51.493 307.082 49.511C306.442 47.465 305.545 45.8666 304.391 44.7157C303.302 43.5009 301.765 42.8935 299.779 42.8935H289.4L289.208 41.2631Z" fill="white"/>
<path d="M395.731 7.2167C395.475 10.4775 395.282 13.6104 395.154 16.6154C395.09 19.6205 395.058 21.9222 395.058 23.5206C395.058 24.9272 395.09 26.2699 395.154 27.5486C395.218 28.8274 395.282 29.9143 395.346 30.8094H393.136C392.111 25.4387 390.798 21.1869 389.196 18.054C387.658 14.9211 385.8 12.7153 383.622 11.4365C381.444 10.0939 378.881 9.42252 375.934 9.42252H373.724V64.1845C373.724 66.742 373.98 68.6601 374.492 69.9388C375.069 71.2176 376.094 72.0807 377.568 72.5283C379.041 72.9119 381.188 73.1357 384.006 73.1996V75.1177C382.02 75.0538 379.362 74.9898 376.03 74.9259C372.763 74.862 369.335 74.83 365.747 74.83C362.224 74.83 358.892 74.862 355.753 74.9259C352.614 74.9898 350.083 75.0538 348.161 75.1177V73.1996C351.044 73.1357 353.222 72.9119 354.696 72.5283C356.169 72.0807 357.162 71.2176 357.675 69.9388C358.187 68.6601 358.444 66.742 358.444 64.1845V9.42252H356.329C353.382 9.42252 350.82 10.0939 348.641 11.4365C346.463 12.7153 344.605 14.9211 343.068 18.054C341.53 21.123 340.185 25.3748 339.031 30.8094H336.821C336.949 29.9143 337.013 28.8274 337.013 27.5486C337.077 26.2699 337.109 24.9272 337.109 23.5206C337.109 21.9222 337.045 19.6205 336.917 16.6154C336.853 13.6104 336.693 10.4775 336.437 7.2167C339.384 7.28064 342.587 7.34458 346.047 7.40851C349.57 7.47245 353.094 7.50442 356.618 7.50442C360.141 7.50442 363.313 7.50442 366.132 7.50442C369.015 7.50442 372.186 7.50442 375.646 7.50442C379.169 7.50442 382.693 7.47245 386.217 7.40851C389.741 7.34458 392.912 7.28064 395.731 7.2167Z" fill="white"/>
<path d="M428.054 7.02489L451.407 67.0616C452.304 69.3634 453.297 70.9618 454.386 71.8569C455.539 72.6881 456.564 73.1357 457.461 73.1996V75.1177C455.539 74.9898 453.265 74.9259 450.638 74.9259C448.075 74.862 445.481 74.83 442.854 74.83C439.907 74.83 437.12 74.862 434.493 74.9259C431.866 74.9259 429.784 74.9898 428.247 75.1177V73.1996C431.514 73.0717 433.564 72.5283 434.397 71.5692C435.294 70.5462 435.102 68.4043 433.82 65.1435L417.483 20.5475L419.213 18.054L404.606 56.0325C403.196 59.5491 402.331 62.4262 402.011 64.664C401.755 66.9018 401.915 68.6281 402.492 69.8429C403.132 71.0577 404.125 71.9209 405.471 72.4324C406.88 72.8799 408.546 73.1357 410.468 73.1996V75.1177C408.354 74.9898 406.336 74.9259 404.414 74.9259C402.492 74.862 400.538 74.83 398.551 74.83C397.142 74.83 395.797 74.862 394.515 74.9259C393.298 74.9259 392.209 74.9898 391.248 75.1177V73.1996C392.593 72.9438 393.971 72.0807 395.38 70.6101C396.79 69.1396 398.167 66.6461 399.512 63.1295L421.423 7.02489C422.449 7.08883 423.538 7.12079 424.691 7.12079C425.908 7.12079 427.029 7.08883 428.054 7.02489ZM434.781 47.497V49.4151H406.143L407.104 47.497H434.781Z" fill="white"/>
<path d="M488.431 76.1412C483.863 75.5891 479.73 74.3209 476.03 72.3364C470.969 69.5872 467.029 65.6231 464.21 60.4442C461.391 55.2653 459.982 49.0314 459.982 41.7426C459.982 34.5817 461.423 28.3159 464.306 22.9452C467.253 17.5745 471.258 13.3866 476.319 10.3816C481.444 7.37654 487.338 5.87402 494.001 5.87402C500.792 5.87402 506.719 7.24867 511.78 9.99796C516.905 12.7472 520.878 16.7113 523.696 21.8902C526.515 27.0052 527.925 33.239 527.925 40.5918C527.925 47.7527 526.483 54.0185 523.6 59.3892C520.717 64.7599 516.681 68.9478 511.492 71.9528C507.009 74.5813 501.962 76.0602 496.351 76.3896C497.895 77.2834 499.087 78.2098 500.191 79.0675C503.406 81.5661 506.669 83.4615 514.086 82.3106C520.401 81.5991 526.5 79.0244 531 74.4464C530.488 77.9629 529.687 80.9679 528.598 83.4615C527.508 86.0189 526.099 88.001 524.369 89.4076C523.024 90.4945 521.262 91.3896 519.084 92.093C516.969 92.7963 514.599 93.1479 511.972 93.1479C502.415 93.1479 493.037 84.094 488.431 76.1412ZM493.617 7.60032C490.029 7.60032 486.89 9.0389 484.199 11.9161C481.572 14.7932 479.522 18.7573 478.049 23.8083C476.639 28.8593 475.934 34.7096 475.934 41.359C475.934 48.1363 476.735 54.0505 478.337 59.1015C480.003 64.0886 482.213 67.9568 484.968 70.7061C487.787 73.3914 490.894 74.7341 494.29 74.7341C497.877 74.7341 500.985 73.2955 503.611 70.4183C506.302 67.5412 508.352 63.5771 509.762 58.5261C511.235 53.4111 511.972 47.5609 511.972 40.9754C511.972 34.1341 511.139 28.22 509.474 23.2329C507.872 18.2458 505.662 14.4096 502.843 11.7243C500.088 8.97497 497.013 7.60032 493.617 7.60032Z" fill="white"/>
<path d="M488.431 76.1412C483.863 75.5891 479.73 74.3209 476.03 72.3364C470.969 69.5872 467.029 65.6231 464.21 60.4442C461.391 55.2653 459.982 49.0314 459.982 41.7426C459.982 34.5817 461.423 28.3159 464.306 22.9452C467.253 17.5745 471.258 13.3866 476.319 10.3816C481.444 7.37654 487.338 5.87402 494.001 5.87402C500.792 5.87402 506.719 7.24867 511.78 9.99796C516.905 12.7472 520.878 16.7113 523.696 21.8902C526.515 27.0052 527.925 33.239 527.925 40.5918C527.925 47.7527 526.483 54.0185 523.6 59.3892C520.717 64.7599 516.681 68.9478 511.492 71.9528C507.009 74.5813 501.962 76.0602 496.351 76.3896C497.895 77.2834 499.087 78.2098 500.191 79.0675C503.406 81.5661 506.669 83.4615 514.086 82.3106C520.401 81.5991 526.5 79.0244 531 74.4464C530.488 77.9629 529.687 80.9679 528.598 83.4615C527.508 86.0189 526.099 88.001 524.369 89.4076C523.024 90.4945 521.262 91.3896 519.084 92.093C516.969 92.7963 514.599 93.1479 511.972 93.1479C502.415 93.1479 493.037 84.094 488.431 76.1412ZM493.617 7.60032C490.029 7.60032 486.89 9.0389 484.199 11.9161C481.572 14.7932 479.522 18.7573 478.049 23.8083C476.639 28.8593 475.934 34.7096 475.934 41.359C475.934 48.1363 476.735 54.0505 478.337 59.1015C480.003 64.0886 482.213 67.9568 484.968 70.7061C487.787 73.3914 490.894 74.7341 494.29 74.7341C497.877 74.7341 500.985 73.2955 503.611 70.4183C506.302 67.5412 508.352 63.5771 509.762 58.5261C511.235 53.4111 511.972 47.5609 511.972 40.9754C511.972 34.1341 511.139 28.22 509.474 23.2329C507.872 18.2458 505.662 14.4096 502.843 11.7243C500.088 8.97497 497.013 7.60032 493.617 7.60032Z" fill="#A98B5D"/>
</g>
<g filter="url(#filter2_d_40000013_207)">
<path d="M148.582 110.254V90.2246H140.785V84.4334H163.523V90.2246H155.762V110.254H148.582Z" fill="white"/>
<path d="M161.877 110.254L173.082 84.4334H180.154L191.395 110.254H183.925L175.149 88.0114H177.978L169.202 110.254H161.877ZM168.005 105.237L169.855 99.852H182.257L184.106 105.237H168.005Z" fill="white"/>
<path d="M193.431 110.254V84.4334H200.611V104.463H212.723V110.254H193.431Z" fill="white"/>
<path d="M221.984 104.537L221.585 96.3478L232.5 84.4334H240.406L229.526 96.4216L225.537 100.664L221.984 104.537ZM215.565 110.254V84.4334H222.673V110.254H215.565ZM232.609 110.254L224.341 99.5938L229.019 94.5035L240.95 110.254H232.609Z" fill="white"/>
<path d="M251.223 110.77C249.144 110.77 247.138 110.512 245.203 109.996C243.294 109.455 241.734 108.766 240.525 107.93L242.883 102.545C244.019 103.282 245.324 103.897 246.799 104.389C248.298 104.856 249.785 105.09 251.26 105.09C252.251 105.09 253.049 105.004 253.653 104.832C254.257 104.635 254.693 104.389 254.958 104.094C255.249 103.774 255.394 103.405 255.394 102.987C255.394 102.397 255.128 101.93 254.596 101.586C254.064 101.241 253.375 100.959 252.529 100.737C251.683 100.516 250.74 100.295 249.7 100.073C248.685 99.852 247.657 99.5692 246.618 99.225C245.602 98.8807 244.672 98.438 243.825 97.897C242.979 97.3314 242.29 96.606 241.758 95.7207C241.227 94.8109 240.961 93.6674 240.961 92.2903C240.961 90.741 241.372 89.3393 242.194 88.0852C243.04 86.831 244.297 85.8228 245.965 85.0605C247.633 84.2982 249.712 83.917 252.202 83.917C253.871 83.917 255.502 84.1137 257.098 84.5072C258.718 84.876 260.156 85.4293 261.413 86.1671L259.201 91.5894C257.993 90.9255 256.796 90.4336 255.611 90.114C254.427 89.7697 253.278 89.5975 252.166 89.5975C251.175 89.5975 250.377 89.7082 249.773 89.9295C249.168 90.1262 248.733 90.3968 248.467 90.741C248.201 91.0853 248.068 91.4788 248.068 91.9214C248.068 92.487 248.322 92.9419 248.83 93.2862C249.362 93.6059 250.051 93.8764 250.897 94.0977C251.767 94.2944 252.71 94.5035 253.725 94.7248C254.765 94.9461 255.793 95.2289 256.808 95.5732C257.847 95.8929 258.79 96.3355 259.637 96.9011C260.483 97.4421 261.16 98.1675 261.667 99.0774C262.199 99.9627 262.465 101.082 262.465 102.434C262.465 103.934 262.042 105.324 261.196 106.602C260.374 107.856 259.129 108.865 257.461 109.627C255.817 110.389 253.738 110.77 251.223 110.77Z" fill="white"/>
</g>
<defs>
<filter id="filter0_d_40000013_207" x="0" y="0" width="113" height="118" filterUnits="userSpaceOnUse" color-interpolation-filters="sRGB">
<feFlood flood-opacity="0" result="BackgroundImageFix"/>
<feColorMatrix in="SourceAlpha" type="matrix" values="0 0 0 0 0 0 0 0 0 0 0 0 0 0 0 0 0 0 127 0" result="hardAlpha"/>
<feOffset dy="4"/>
<feGaussianBlur stdDeviation="2"/>
<feComposite in2="hardAlpha" operator="out"/>
<feColorMatrix type="matrix" values="0 0 0 0 0 0 0 0 0 0 0 0 0 0 0 0 0 0 0.25 0"/>
<feBlend mode="normal" in2="BackgroundImageFix" result="effect1_dropShadow_40000013_207"/>
<feBlend mode="normal" in="SourceGraphic" in2="effect1_dropShadow_40000013_207" result="shape"/>
</filter>
<filter id="filter1_d_40000013_207" x="136.785" y="5.87402" width="398.215" height="95.2739" filterUnits="userSpaceOnUse" color-interpolation-filters="sRGB">
<feFlood flood-opacity="0" result="BackgroundImageFix"/>
<feColorMatrix in="SourceAlpha" type="matrix" values="0 0 0 0 0 0 0 0 0 0 0 0 0 0 0 0 0 0 127 0" result="hardAlpha"/>
<feOffset dy="4"/>
<feGaussianBlur stdDeviation="2"/>
<feComposite in2="hardAlpha" operator="out"/>
<feColorMatrix type="matrix" values="0 0 0 0 0 0 0 0 0 0 0 0 0 0 0 0 0 0 0.25 0"/>
<feBlend mode="normal" in2="BackgroundImageFix" result="effect1_dropShadow_40000013_207"/>
<feBlend mode="normal" in="SourceGraphic" in2="effect1_dropShadow_40000013_207" result="shape"/>
</filter>
<filter id="filter2_d_40000013_207" x="136.785" y="83.917" width="129.68" height="34.8535" filterUnits="userSpaceOnUse" color-interpolation-filters="sRGB">
<feFlood flood-opacity="0" result="BackgroundImageFix"/>
<feColorMatrix in="SourceAlpha" type="matrix" values="0 0 0 0 0 0 0 0 0 0 0 0 0 0 0 0 0 0 127 0" result="hardAlpha"/>
<feOffset dy="4"/>
<feGaussianBlur stdDeviation="2"/>
<feComposite in2="hardAlpha" operator="out"/>
<feColorMatrix type="matrix" values="0 0 0 0 0 0 0 0 0 0 0 0 0 0 0 0 0 0 0.25 0"/>
<feBlend mode="normal" in2="BackgroundImageFix" result="effect1_dropShadow_40000013_207"/>
<feBlend mode="normal" in="SourceGraphic" in2="effect1_dropShadow_40000013_207" result="shape"/>
</filter>
</defs>
</svg>
