<svg width="396" height="262" viewBox="0 0 396 262" fill="none" xmlns="http://www.w3.org/2000/svg">
<g filter="url(#filter0_d_40000013_219)">
<path fill-rule="evenodd" clip-rule="evenodd" d="M192.503 25.6593L150.558 0V109H155.046V51.3418L192.503 74.1581V25.6593Z" fill="white"/>
<path fill-rule="evenodd" clip-rule="evenodd" d="M154.938 106.559L150.449 109C150.449 109 137.854 109 155.046 109C172.238 109 191.686 101.517 199.857 79.2722C192.23 81.4967 154.938 106.559 154.938 106.559Z" fill="white"/>
<path fill-rule="evenodd" clip-rule="evenodd" d="M154.938 106.559L150.449 109C150.449 109 137.854 109 155.046 109C172.238 109 191.686 101.517 199.857 79.2722C192.23 81.4967 154.938 106.559 154.938 106.559Z" fill="#A98B5D"/>
<path d="M201.772 36.1412L205.382 32.7489V75.5179L201.772 72.0964V36.1412Z" fill="white"/>
<path d="M212.927 23.4618L216.537 20.0404V88.7153L212.927 85.2937V23.4618Z" fill="#A98B5D"/>
<path d="M224.081 32.7488L227.691 29.3274V77.2287L224.081 73.8071V32.7488Z" fill="white"/>
<path d="M235.235 20.0403L238.845 16.6188L238.845 92.3812L235.235 88.9596L235.235 20.0403Z" fill="#A98B5D"/>
<path d="M246.389 3.42142L250 0L249.999 109L246.389 105.578L246.389 3.42142Z" fill="white"/>
</g>
<g filter="url(#filter1_d_40000013_219)">
<path d="M66.856 150.335V152.241C64.8181 152.495 63.2897 153.036 62.2708 153.862C61.2518 154.625 60.5513 155.864 60.1692 157.58C59.8508 159.296 59.6916 161.711 59.6916 164.825V218.02C58.9273 217.957 58.1313 217.925 57.3034 217.925C56.5392 217.925 55.7113 217.957 54.8197 218.02L13.3615 165.588V202.195C13.3615 205.691 13.5526 208.392 13.9347 210.298C14.3168 212.141 15.1447 213.476 16.4184 214.302C17.7557 215.065 19.8254 215.605 22.6275 215.923V217.829C21.4175 217.702 19.8254 217.639 17.8512 217.639C15.877 217.575 14.0302 217.543 12.3107 217.543C10.846 217.543 9.34945 217.575 7.82103 217.639C6.29262 217.639 5.01894 217.702 4 217.829V215.923C6.03788 215.605 7.5663 215.065 8.58524 214.302C9.60418 213.539 10.2729 212.3 10.5913 210.584C10.9734 208.805 11.1644 206.39 11.1644 203.339V160.44C11.1644 158.088 10.9734 156.372 10.5913 155.292C10.2729 154.148 9.57234 153.385 8.48971 153.004C7.47077 152.559 5.9742 152.305 4 152.241V150.335C5.01894 150.398 6.29262 150.462 7.82103 150.525C9.34945 150.589 10.846 150.621 12.3107 150.621C13.8392 150.621 15.3039 150.589 16.7049 150.525C18.106 150.462 19.3797 150.398 20.526 150.335L57.4945 195.808V165.969C57.4945 162.474 57.3034 159.804 56.9213 157.961C56.5392 156.055 55.6795 154.688 54.3421 153.862C53.0684 153.036 51.0306 152.495 48.2285 152.241V150.335C49.4385 150.398 51.0305 150.462 53.0048 150.525C54.979 150.589 56.8258 150.621 58.5452 150.621C60.0737 150.621 61.5702 150.589 63.035 150.525C64.5634 150.462 65.8371 150.398 66.856 150.335Z" fill="white"/>
<path d="M103.536 150.144L126.749 209.822C127.641 212.11 128.628 213.698 129.71 214.588C130.857 215.414 131.876 215.859 132.767 215.923V217.829C130.857 217.702 128.596 217.639 125.985 217.639C123.438 217.575 120.858 217.543 118.247 217.543C115.318 217.543 112.548 217.575 109.937 217.639C107.326 217.639 105.256 217.702 103.727 217.829V215.923C106.975 215.796 109.013 215.255 109.841 214.302C110.733 213.285 110.542 211.156 109.268 207.915L93.0286 163.586L94.748 161.107L80.2281 198.858C78.8271 202.354 77.9673 205.214 77.6489 207.438C77.3942 209.663 77.5534 211.379 78.1265 212.586C78.7634 213.794 79.7505 214.652 81.0878 215.16C82.4889 215.605 84.1447 215.859 86.0552 215.923V217.829C83.9536 217.702 81.9476 217.639 80.0371 217.639C78.1265 217.575 76.1842 217.543 74.21 217.543C72.8089 217.543 71.4716 217.575 70.1979 217.639C68.9879 217.639 67.9053 217.702 66.95 217.829V215.923C68.2874 215.669 69.6566 214.811 71.0576 213.349C72.4587 211.887 73.8279 209.408 75.1652 205.913L96.9451 150.144C97.9641 150.208 99.0467 150.239 100.193 150.239C101.403 150.239 102.517 150.208 103.536 150.144ZM110.223 190.374V192.281H81.7565L82.7118 190.374H110.223Z" fill="white"/>
<path d="M133.48 150.335C135.072 150.398 137.206 150.462 139.88 150.525C142.619 150.589 145.325 150.621 148 150.621C151.057 150.621 154.018 150.589 156.884 150.525C159.75 150.462 161.788 150.43 162.998 150.43C168.92 150.43 173.824 151.097 177.708 152.432C181.657 153.703 184.586 155.578 186.497 158.057C188.471 160.535 189.458 163.522 189.458 167.018C189.458 169.179 189.012 171.371 188.121 173.596C187.229 175.756 185.701 177.79 183.536 179.697C181.434 181.54 178.536 183.033 174.843 184.177C171.149 185.258 166.5 185.798 160.896 185.798H151.725V183.891H159.941C163.698 183.891 166.532 183.192 168.442 181.794C170.417 180.332 171.754 178.426 172.455 176.074C173.219 173.659 173.601 170.99 173.601 168.066C173.601 163.046 172.709 159.169 170.926 156.436C169.143 153.639 166.086 152.241 161.756 152.241C159.272 152.241 157.648 152.781 156.884 153.862C156.183 154.942 155.833 157.135 155.833 160.44V207.724C155.833 210.012 155.992 211.728 156.311 212.872C156.693 214.016 157.393 214.779 158.412 215.16C159.431 215.541 160.96 215.796 162.998 215.923V217.829C161.278 217.702 159.113 217.639 156.502 217.639C153.891 217.575 151.248 217.543 148.573 217.543C145.516 217.543 142.619 217.575 139.88 217.639C137.206 217.639 135.072 217.702 133.48 217.829V215.923C135.518 215.796 137.046 215.541 138.065 215.16C139.084 214.779 139.753 214.016 140.071 212.872C140.453 211.728 140.644 210.012 140.644 207.724V160.44C140.644 158.088 140.453 156.372 140.071 155.292C139.753 154.148 139.052 153.385 137.97 153.004C136.951 152.559 135.454 152.305 133.48 152.241V150.335ZM151.534 184.177C154.273 184.241 156.629 184.368 158.603 184.559C160.641 184.749 162.424 184.94 163.953 185.131C165.481 185.258 166.85 185.353 168.06 185.417C173.856 185.925 178.122 187.164 180.861 189.135C183.663 191.105 185.478 194.06 186.306 198L188.503 207.82C189.076 210.362 189.681 212.141 190.318 213.158C190.955 214.175 191.878 214.683 193.088 214.683C193.916 214.62 194.585 214.429 195.094 214.111C195.667 213.73 196.272 213.19 196.909 212.491L198.247 213.635C196.527 215.605 194.68 217.003 192.706 217.829C190.732 218.719 188.344 219.164 185.542 219.164C182.103 219.164 179.269 218.433 177.04 216.971C174.811 215.51 173.346 212.809 172.646 208.868L170.926 199.335C170.48 196.666 169.939 194.346 169.302 192.376C168.665 190.342 167.774 188.753 166.627 187.609C165.545 186.402 164.016 185.798 162.042 185.798H151.725L151.534 184.177Z" fill="white"/>
<path d="M257.42 150.335C257.166 153.576 256.975 156.69 256.847 159.677C256.783 162.664 256.752 164.952 256.752 166.541C256.752 167.939 256.783 169.274 256.847 170.545C256.911 171.816 256.975 172.896 257.038 173.786H254.841C253.822 168.448 252.517 164.221 250.925 161.107C249.396 157.993 247.549 155.8 245.384 154.529C243.219 153.195 240.671 152.527 237.742 152.527H235.545V206.962C235.545 209.504 235.8 211.41 236.309 212.682C236.882 213.953 237.901 214.811 239.366 215.255C240.831 215.637 242.964 215.859 245.766 215.923V217.829C243.792 217.766 241.149 217.702 237.838 217.639C234.59 217.575 231.183 217.543 227.616 217.543C224.114 217.543 220.802 217.575 217.682 217.639C214.561 217.702 212.046 217.766 210.135 217.829V215.923C213.001 215.859 215.166 215.637 216.631 215.255C218.095 214.811 219.083 213.953 219.592 212.682C220.102 211.41 220.356 209.504 220.356 206.962V152.527H218.255C215.325 152.527 212.778 153.195 210.613 154.529C208.447 155.8 206.601 157.993 205.072 161.107C203.544 164.158 202.206 168.384 201.06 173.786H198.863C198.99 172.896 199.054 171.816 199.054 170.545C199.118 169.274 199.15 167.939 199.15 166.541C199.15 164.952 199.086 162.664 198.959 159.677C198.895 156.69 198.736 153.576 198.481 150.335C201.41 150.398 204.595 150.462 208.033 150.525C211.536 150.589 215.039 150.621 218.541 150.621C222.044 150.621 225.196 150.621 227.998 150.621C230.864 150.621 234.016 150.621 237.455 150.621C240.958 150.621 244.461 150.589 247.963 150.525C251.466 150.462 254.618 150.398 257.42 150.335Z" fill="white"/>
<path d="M289.551 150.144L312.763 209.822C313.655 212.11 314.642 213.698 315.725 214.588C316.871 215.414 317.89 215.859 318.781 215.923V217.829C316.871 217.702 314.61 217.639 311.999 217.639C309.452 217.575 306.873 217.543 304.262 217.543C301.332 217.543 298.562 217.575 295.951 217.639C293.34 217.639 291.27 217.702 289.742 217.829V215.923C292.99 215.796 295.027 215.255 295.855 214.302C296.747 213.285 296.556 211.156 295.282 207.915L279.043 163.586L280.762 161.107L266.242 198.858C264.841 202.354 263.981 205.214 263.663 207.438C263.408 209.663 263.568 211.379 264.141 212.586C264.778 213.794 265.765 214.652 267.102 215.16C268.503 215.605 270.159 215.859 272.069 215.923V217.829C269.968 217.702 267.962 217.639 266.051 217.639C264.141 217.575 262.198 217.543 260.224 217.543C258.823 217.543 257.486 217.575 256.212 217.639C255.002 217.639 253.919 217.702 252.964 217.829V215.923C254.302 215.669 255.671 214.811 257.072 213.349C258.473 211.887 259.842 209.408 261.179 205.913L282.959 150.144C283.978 150.208 285.061 150.239 286.207 150.239C287.417 150.239 288.532 150.208 289.551 150.144ZM296.237 190.374V192.281H267.771L268.726 190.374H296.237Z" fill="white"/>
<path d="M349.566 218.847C345.026 218.298 340.917 217.037 337.24 215.065C332.209 212.332 328.292 208.392 325.49 203.244C322.688 198.096 321.287 191.899 321.287 184.654C321.287 177.536 322.72 171.308 325.585 165.969C328.515 160.63 332.495 156.468 337.526 153.481C342.621 150.494 348.48 149 355.103 149C361.853 149 367.744 150.366 372.775 153.099C377.87 155.832 381.818 159.772 384.62 164.92C387.422 170.005 388.824 176.201 388.824 183.51C388.824 190.628 387.391 196.856 384.525 202.195C381.659 207.534 377.647 211.696 372.489 214.683C368.032 217.296 363.016 218.766 357.439 219.094C358.973 219.982 360.158 220.903 361.255 221.756C364.452 224.239 367.695 226.123 375.068 224.979C381.345 224.272 387.407 221.713 391.88 217.162C391.371 220.658 390.575 223.645 389.492 226.123C388.41 228.665 387.009 230.636 385.289 232.034C383.952 233.114 382.2 234.004 380.035 234.703C377.934 235.402 375.577 235.752 372.966 235.752C363.467 235.752 354.144 226.752 349.566 218.847ZM354.721 150.716C351.155 150.716 348.034 152.146 345.359 155.006C342.748 157.866 340.71 161.806 339.246 166.827C337.845 171.848 337.144 177.663 337.144 184.273C337.144 191.009 337.94 196.888 339.532 201.909C341.188 206.866 343.385 210.711 346.123 213.444C348.926 216.113 352.014 217.448 355.39 217.448C358.956 217.448 362.044 216.018 364.655 213.158C367.33 210.298 369.368 206.358 370.769 201.337C372.234 196.253 372.966 190.437 372.966 183.891C372.966 177.091 372.138 171.212 370.483 166.255C368.89 161.298 366.693 157.485 363.891 154.815C361.153 152.082 358.096 150.716 354.721 150.716Z" fill="white"/>
<path d="M349.566 218.847C345.026 218.298 340.917 217.037 337.24 215.065C332.209 212.332 328.292 208.392 325.49 203.244C322.688 198.096 321.287 191.899 321.287 184.654C321.287 177.536 322.72 171.308 325.585 165.969C328.515 160.63 332.495 156.468 337.526 153.481C342.621 150.494 348.48 149 355.103 149C361.853 149 367.744 150.366 372.775 153.099C377.87 155.832 381.818 159.772 384.62 164.92C387.422 170.005 388.824 176.201 388.824 183.51C388.824 190.628 387.391 196.856 384.525 202.195C381.659 207.534 377.647 211.696 372.489 214.683C368.032 217.296 363.016 218.766 357.439 219.094C358.973 219.982 360.158 220.903 361.255 221.756C364.452 224.239 367.695 226.123 375.068 224.979C381.345 224.272 387.407 221.713 391.88 217.162C391.371 220.658 390.575 223.645 389.492 226.123C388.41 228.665 387.009 230.636 385.289 232.034C383.952 233.114 382.2 234.004 380.035 234.703C377.934 235.402 375.577 235.752 372.966 235.752C363.467 235.752 354.144 226.752 349.566 218.847ZM354.721 150.716C351.155 150.716 348.034 152.146 345.359 155.006C342.748 157.866 340.71 161.806 339.246 166.827C337.845 171.848 337.144 177.663 337.144 184.273C337.144 191.009 337.94 196.888 339.532 201.909C341.188 206.866 343.385 210.711 346.123 213.444C348.926 216.113 352.014 217.448 355.39 217.448C358.956 217.448 362.044 216.018 364.655 213.158C367.33 210.298 369.368 206.358 370.769 201.337C372.234 196.253 372.966 190.437 372.966 183.891C372.966 177.091 372.138 171.212 370.483 166.255C368.89 161.298 366.693 157.485 363.891 154.815C361.153 152.082 358.096 150.716 354.721 150.716Z" fill="#A98B5D"/>
</g>
<g filter="url(#filter2_d_40000013_219)">
<path d="M11.7501 252.756V232.846H4V227.089H26.6015V232.846H18.8874V252.756H11.7501Z" fill="white"/>
<path d="M24.9653 252.756L36.1038 227.089H43.1329L54.3075 252.756H46.8818L38.1584 230.646H40.9701L32.2467 252.756H24.9653ZM31.0572 247.769L32.8956 242.416H45.2237L47.0621 247.769H31.0572Z" fill="white"/>
<path d="M56.3309 252.756V227.089H63.4682V246.999H75.5079V252.756H56.3309Z" fill="white"/>
<path d="M84.7126 247.072L84.316 238.933L95.1662 227.089H103.024L92.2103 239.006L88.2452 243.223L84.7126 247.072ZM78.3322 252.756V227.089H85.3974V252.756H78.3322ZM95.2743 252.756L87.0556 242.159L91.7057 237.099L103.565 252.756H95.2743Z" fill="white"/>
<path d="M113.777 253.269C111.711 253.269 109.716 253.012 107.794 252.499C105.895 251.961 104.345 251.277 103.144 250.446L105.487 245.092C106.616 245.826 107.914 246.437 109.38 246.926C110.87 247.39 112.348 247.622 113.813 247.622C114.799 247.622 115.592 247.537 116.193 247.366C116.793 247.17 117.226 246.926 117.49 246.632C117.779 246.315 117.923 245.948 117.923 245.532C117.923 244.946 117.658 244.481 117.13 244.139C116.601 243.797 115.916 243.516 115.075 243.296C114.234 243.076 113.297 242.856 112.263 242.636C111.254 242.416 110.233 242.135 109.199 241.793C108.19 241.45 107.265 241.01 106.424 240.473C105.583 239.91 104.898 239.189 104.369 238.309C103.84 237.405 103.576 236.268 103.576 234.899C103.576 233.359 103.985 231.966 104.802 230.719C105.643 229.473 106.892 228.471 108.551 227.713C110.209 226.955 112.275 226.576 114.751 226.576C116.409 226.576 118.031 226.772 119.617 227.163C121.227 227.529 122.657 228.079 123.907 228.813L121.708 234.203C120.506 233.543 119.317 233.054 118.139 232.736C116.962 232.394 115.82 232.223 114.715 232.223C113.729 232.223 112.936 232.333 112.336 232.553C111.735 232.748 111.302 233.017 111.038 233.359C110.773 233.702 110.641 234.093 110.641 234.533C110.641 235.095 110.894 235.547 111.398 235.889C111.927 236.207 112.612 236.476 113.453 236.696C114.318 236.892 115.255 237.099 116.265 237.319C117.298 237.539 118.319 237.82 119.329 238.163C120.362 238.48 121.299 238.92 122.14 239.483C122.981 240.02 123.654 240.741 124.159 241.646C124.688 242.526 124.952 243.638 124.952 244.983C124.952 246.474 124.531 247.855 123.69 249.126C122.873 250.372 121.636 251.375 119.977 252.132C118.343 252.89 116.277 253.269 113.777 253.269Z" fill="white"/>
</g>
<defs>
<filter id="filter0_d_40000013_219" x="142" y="0" width="112" height="117" filterUnits="userSpaceOnUse" color-interpolation-filters="sRGB">
<feFlood flood-opacity="0" result="BackgroundImageFix"/>
<feColorMatrix in="SourceAlpha" type="matrix" values="0 0 0 0 0 0 0 0 0 0 0 0 0 0 0 0 0 0 127 0" result="hardAlpha"/>
<feOffset dy="4"/>
<feGaussianBlur stdDeviation="2"/>
<feComposite in2="hardAlpha" operator="out"/>
<feColorMatrix type="matrix" values="0 0 0 0 0 0 0 0 0 0 0 0 0 0 0 0 0 0 0.25 0"/>
<feBlend mode="normal" in2="BackgroundImageFix" result="effect1_dropShadow_40000013_219"/>
<feBlend mode="normal" in="SourceGraphic" in2="effect1_dropShadow_40000013_219" result="shape"/>
</filter>
<filter id="filter1_d_40000013_219" x="0" y="149" width="395.88" height="94.752" filterUnits="userSpaceOnUse" color-interpolation-filters="sRGB">
<feFlood flood-opacity="0" result="BackgroundImageFix"/>
<feColorMatrix in="SourceAlpha" type="matrix" values="0 0 0 0 0 0 0 0 0 0 0 0 0 0 0 0 0 0 127 0" result="hardAlpha"/>
<feOffset dy="4"/>
<feGaussianBlur stdDeviation="2"/>
<feComposite in2="hardAlpha" operator="out"/>
<feColorMatrix type="matrix" values="0 0 0 0 0 0 0 0 0 0 0 0 0 0 0 0 0 0 0.25 0"/>
<feBlend mode="normal" in2="BackgroundImageFix" result="effect1_dropShadow_40000013_219"/>
<feBlend mode="normal" in="SourceGraphic" in2="effect1_dropShadow_40000013_219" result="shape"/>
</filter>
<filter id="filter2_d_40000013_219" x="0" y="226.576" width="128.952" height="34.6929" filterUnits="userSpaceOnUse" color-interpolation-filters="sRGB">
<feFlood flood-opacity="0" result="BackgroundImageFix"/>
<feColorMatrix in="SourceAlpha" type="matrix" values="0 0 0 0 0 0 0 0 0 0 0 0 0 0 0 0 0 0 127 0" result="hardAlpha"/>
<feOffset dy="4"/>
<feGaussianBlur stdDeviation="2"/>
<feComposite in2="hardAlpha" operator="out"/>
<feColorMatrix type="matrix" values="0 0 0 0 0 0 0 0 0 0 0 0 0 0 0 0 0 0 0.25 0"/>
<feBlend mode="normal" in2="BackgroundImageFix" result="effect1_dropShadow_40000013_219"/>
<feBlend mode="normal" in="SourceGraphic" in2="effect1_dropShadow_40000013_219" result="shape"/>
</filter>
</defs>
</svg>
